<svg xmlns="http://www.w3.org/2000/svg" height="74.253" width="65.947" xml:space="preserve"><path style="fill:#231f20;fill-opacity:1;fill-rule:nonzero;stroke:none" d="M1.484 121.738v83.614h52.844v-9.883H12.723v-22.91h38.761v-9.883H12.723v-31.055h41.605v-9.883H1.484M118.137 121.738h-10.676v6.961c-3.289-2.84-6.406-5.008-9.363-6.484-2.95-1.485-6.242-2.215-9.875-2.215-2.762 0-5.364.449-7.805 1.348-2.441.898-4.57 2.312-6.387 4.265-1.812 1.946-3.222 4.395-4.226 7.356-1.008 2.957-1.504 6.551-1.504 10.781v40.715h10.672V148.75c0-3.328.12-6.094.363-8.281.254-2.199.812-4.114 1.68-5.762.87-1.613 2.05-2.785 3.543-3.535 1.496-.75 3.644-1.125 6.449-1.125 2.605 0 5.39.734 8.34 2.187a37.931 37.931 0 0 1 8.113 5.395v46.836h10.676v-62.727M170.547 173.113h-.567a11.48 11.48 0 0 1-2.519.422 49.94 49.94 0 0 1-3.215.086c-2.867 0-5.73-.613-8.562-1.855-2.84-1.231-5.528-3.067-8.067-5.496v-44.532h-10.676v62.727h10.676v-9.328c3.899 3.41 7.293 5.808 10.196 7.215 2.89 1.406 5.703 2.113 8.425 2.113 1.098 0 1.914-.031 2.461-.09a27.868 27.868 0 0 0 1.848-.254v-11.008M222.793 153.066c0 8.125-1.492 14.161-4.48 18.114-2.993 3.949-7.25 5.929-12.778 5.929-5.555 0-9.844-1.98-12.847-5.929-3.008-3.953-4.512-9.989-4.512-18.114 0-7.851 1.504-13.82 4.512-17.882 3.003-4.063 7.292-6.094 12.847-6.094 5.488 0 9.738 1.996 12.746 5.988 3.008 3.985 4.512 9.981 4.512 17.988zm11.016 0c0-10.546-2.579-18.703-7.715-24.453-5.149-5.742-12-8.613-20.559-8.613-8.805 0-15.738 2.969-20.801 8.895-5.046 5.941-7.578 13.996-7.578 24.171 0 10.489 2.61 18.633 7.805 24.434 5.203 5.801 12.07 8.699 20.574 8.699 8.559 0 15.41-2.89 20.559-8.672 5.136-5.789 7.715-13.933 7.715-24.461M290.305 153.574c0 7.149-1.157 12.703-3.469 16.649-2.305 3.957-6.055 5.929-11.231 5.929-3.027 0-5.957-.664-8.769-1.992-2.82-1.328-5.496-3.047-8.035-5.137v-35.546c2.801-1.348 5.191-2.266 7.176-2.754 1.992-.489 4.265-.735 6.843-.735 5.532 0 9.817 2.004 12.883 6.008 3.067 4.012 4.602 9.871 4.602 17.578zm11.011 1.184c0-10.442-2.527-18.762-7.578-24.961-5.054-6.195-11.441-9.289-19.16-9.289-3.14 0-5.918.351-8.34 1.062-2.422.715-4.898 1.817-7.437 3.313V98.602h-10.676v85.863h10.676v-6.574a38.968 38.968 0 0 0 8.828 5.925c3.23 1.594 6.766 2.383 10.586 2.383 7.265 0 12.93-2.84 17-8.535 4.062-5.691 6.101-13.328 6.101-22.906M355.77 160.09c-.079 2.848-.418 5.301-1.012 7.351-.61 2.063-1.488 3.809-2.617 5.223-1.25 1.574-2.844 2.774-4.797 3.594-1.953.832-4.364 1.242-7.239 1.242-2.839 0-5.25-.422-7.234-1.27-1.992-.839-3.801-2.058-5.422-3.671-1.59-1.653-2.801-3.477-3.633-5.481-.828-2-1.367-4.336-1.589-6.988zm-12.489-39.817c-10.097 0-17.937 2.821-23.523 8.457-5.578 5.633-8.371 13.633-8.371 24.004 0 10.215 2.707 18.352 8.117 24.395 5.406 6.043 12.488 9.07 21.226 9.07 3.938 0 7.415-.554 10.442-1.687 3.027-1.114 5.683-2.879 7.949-5.274 2.274-2.394 4.016-5.324 5.227-8.789 1.211-3.457 1.812-7.707 1.812-12.715v-5.73h-43.933c0-7.297 1.855-12.871 5.566-16.731 3.699-3.859 8.828-5.781 15.383-5.781 2.344 0 4.637.254 6.89.781 2.258.528 4.289 1.2 6.106 2.024 1.926.855 3.555 1.687 4.883 2.5 1.316.797 2.422 1.558 3.293 2.273h.625v-11.515c-1.25-.489-2.805-1.09-4.66-1.825-1.856-.734-3.516-1.3-4.993-1.71a64.695 64.695 0 0 0-5.652-1.297c-1.68-.293-3.809-.45-6.387-.45M415.742 137.176v17.414a928.796 928.796 0 0 1-9.621-.93c-3.875-.39-7.012-.945-9.391-1.656-2.835-.863-5.187-2.18-7.035-3.957-1.851-1.777-2.781-4.258-2.781-7.442 0-3.593 1.016-6.308 3.066-8.144 2.04-1.836 5.032-2.754 8.965-2.754 3.368 0 6.414.723 9.141 2.168 2.727 1.434 5.273 3.215 7.656 5.301zm0-8.758a134.493 134.493 0 0 1-3.484-2.664c-1.457-1.145-2.871-2.055-4.231-2.727-1.894-.968-3.718-1.718-5.476-2.246-1.758-.519-4.231-.781-7.414-.781-2.61 0-5.086.488-7.434 1.453a19.21 19.21 0 0 0-6.18 4.102c-1.71 1.718-3.066 3.847-4.089 6.379-1.028 2.519-1.536 5.195-1.536 7.996 0 4.347.926 8.039 2.786 11.093 1.851 3.047 4.785 5.469 8.796 7.266 3.555 1.613 7.754 2.727 12.598 3.344 4.844.625 10.067 1.082 15.664 1.375v2.019c0 2.473-.371 4.465-1.133 5.989-.754 1.511-1.816 2.683-3.171 3.504-1.372.863-3.032 1.437-5 1.71-1.965.282-3.997.43-6.079.43-2.461 0-5.347-.371-8.679-1.105-3.328-.719-6.66-1.785-9.992-3.172h-.625v10.73c1.964.559 4.789 1.184 8.457 1.848a59.388 59.388 0 0 0 10.902 1.016c4.351 0 8.016-.332 11.016-1.016 2.988-.664 5.671-1.887 8.054-3.645 2.305-1.726 4.031-3.953 5.164-6.687 1.137-2.727 1.699-6.055 1.699-9.992v-42.899h-10.613v6.68M494.551 121.738h-10.672v35.711c0 2.883-.149 5.567-.434 8.059-.281 2.488-.816 4.48-1.609 5.976-.867 1.582-2.078 2.743-3.633 3.516-1.555.762-3.672 1.152-6.355 1.152-2.66 0-5.383-.703-8.203-2.109-2.825-1.406-5.579-3.223-8.262-5.469v-46.836h-10.676v62.727h10.676V177.5c3.18 2.801 6.316 4.961 9.422 6.453a22.353 22.353 0 0 0 9.824 2.246c6.238 0 11.125-2.027 14.641-6.094 3.523-4.058 5.281-9.949 5.281-17.656v-40.711M30.996 0c-4.96 0-9.285.645-13 1.934-3.71 1.289-6.863 3.21-9.48 5.761-2.95 2.91-5.028 6.407-6.243 10.47C1.063 22.226.457 27.226.457 33.183v52.168h11.242V33.184c0-3.86.246-7.098.73-9.747.5-2.636 1.47-5 2.903-7.097 1.512-2.25 3.566-3.95 6.16-5.11 2.59-1.164 5.754-1.738 9.504-1.738 3.516 0 6.64.574 9.363 1.738 2.727 1.16 4.848 2.86 6.36 5.11a19.932 19.932 0 0 1 2.87 7.078c.509 2.578.763 5.742.763 9.48v52.454h11.242V33.184c0-5.801-.598-10.782-1.79-14.942-1.19-4.152-3.28-7.668-6.269-10.547-2.695-2.59-5.82-4.511-9.394-5.793C40.555.632 36.18 0 30.996 0M130.066 1.738h-10.671V37.45c0 2.883-.149 5.567-.43 8.059-.281 2.488-.82 4.48-1.61 5.976-.871 1.582-2.082 2.743-3.632 3.516-1.555.762-3.672 1.152-6.36 1.152-2.656 0-5.383-.703-8.203-2.109-2.82-1.406-5.574-3.223-8.262-5.469V1.738H80.223v62.727h10.675V57.5c3.184 2.8 6.32 4.96 9.422 6.453a22.369 22.369 0 0 0 9.825 2.246c6.242 0 11.125-2.027 14.64-6.093 3.528-4.06 5.281-9.95 5.281-17.657V1.74M159.316 1.738h-10.664v62.727h10.664zm.743 73.223H147.91v10.945h12.149V74.961M219.512 33.066c0 8.125-1.492 14.16-4.485 18.114-2.988 3.949-7.246 5.93-12.769 5.93-5.559 0-9.848-1.981-12.856-5.93-3.007-3.953-4.507-9.989-4.507-18.114 0-7.851 1.5-13.82 4.507-17.882 3.008-4.063 7.297-6.094 12.856-6.094 5.484 0 9.734 1.996 12.742 5.988 3.008 3.985 4.512 9.98 4.512 17.988zm11.015 0c0-10.547-2.578-18.703-7.714-24.453-5.149-5.742-12-8.613-20.555-8.613-8.813 0-15.742 2.969-20.805 8.895-5.047 5.94-7.574 13.996-7.574 24.171 0 10.489 2.605 18.633 7.801 24.434 5.207 5.8 12.07 8.7 20.578 8.7 8.555 0 15.406-2.891 20.555-8.673 5.136-5.789 7.714-13.933 7.714-24.46M294.688 1.738h-10.672V37.45c0 2.883-.149 5.567-.43 8.059-.285 2.488-.82 4.48-1.613 5.976-.868 1.582-2.078 2.743-3.633 3.516-1.555.762-3.672 1.152-6.36 1.152-2.656 0-5.378-.703-8.203-2.109-2.82-1.406-5.574-3.223-8.257-5.469V1.738h-10.676v62.727h10.676V57.5c3.179 2.8 6.316 4.96 9.421 6.453a22.344 22.344 0 0 0 9.825 2.246c6.242 0 11.125-2.027 14.636-6.093 3.528-4.06 5.286-9.95 5.286-17.657V1.74" transform="matrix(.13333 0 0 -.13333 0 74.253)"/><path style="fill:#254aa5;fill-opacity:1;fill-rule:nonzero;stroke:none" d="M0 556.859h494.648V226.543H0v330.316" transform="matrix(.13333 0 0 -.13333 0 74.253)"/><path style="fill:#fff200;fill-opacity:1;fill-rule:nonzero;stroke:none" d="m151.824 468.633 4.074-11.731 12.5-.254-9.941-7.488 3.621-11.894-10.254 7.089-10.254-7.089 3.618 11.894-9.954 7.488 12.481.254 4.109 11.731" transform="matrix(.13333 0 0 -.13333 0 74.253)"/><path style="fill:#fff200;fill-opacity:1;fill-rule:nonzero;stroke:none" d="m151.824 468.633 4.074-11.731 12.5-.254-9.941-7.488 3.621-11.894-10.254 7.089-10.254-7.089 3.618 11.894-9.954 7.488 12.481.254 4.109 11.731M192.395 508.98l4.089-11.714 12.5-.258-9.961-7.5 3.614-11.883-10.242 7.09-10.247-7.09 3.622 11.883-9.95 7.5 12.481.258 4.094 11.714" transform="matrix(.13333 0 0 -.13333 0 74.253)"/><path style="fill:#fff200;fill-opacity:1;fill-rule:nonzero;stroke:none" d="m192.395 508.98 4.089-11.714 12.5-.258-9.961-7.5 3.614-11.883-10.242 7.09-10.247-7.09 3.622 11.883-9.95 7.5 12.481.258 4.094 11.714M248.301 523.652l4.101-11.722 12.469-.25-9.937-7.5 3.613-11.875-10.246 7.09-10.235-7.09 3.606 11.875-9.953 7.5 12.48.25 4.102 11.722" transform="matrix(.13333 0 0 -.13333 0 74.253)"/><path style="fill:#fff200;fill-opacity:1;fill-rule:nonzero;stroke:none" d="m248.301 523.652 4.101-11.722 12.469-.25-9.937-7.5 3.613-11.875-10.246 7.09-10.235-7.09 3.606 11.875-9.953 7.5 12.48.25 4.102 11.722M303.684 508.98l4.089-11.714 12.493-.258-9.946-7.5 3.625-11.883-10.261 7.09-10.227-7.09 3.594 11.883-9.942 7.5 12.469.258 4.106 11.714" transform="matrix(.13333 0 0 -.13333 0 74.253)"/><path style="fill:#fff200;fill-opacity:1;fill-rule:nonzero;stroke:none" d="m303.684 508.98 4.089-11.714 12.493-.258-9.946-7.5 3.625-11.883-10.261 7.09-10.227-7.09 3.594 11.883-9.942 7.5 12.469.258 4.106 11.714M344.258 468.633l4.121-11.731 12.461-.254-9.949-7.488 3.613-11.894-10.246 7.089-10.242-7.089 3.621 11.894-9.942 7.488 12.473.254 4.09 11.731" transform="matrix(.13333 0 0 -.13333 0 74.253)"/><path style="fill:#fff200;fill-opacity:1;fill-rule:nonzero;stroke:none" d="m344.258 468.633 4.121-11.731 12.461-.254-9.949-7.488 3.613-11.894-10.246 7.089-10.242-7.089 3.621 11.894-9.942 7.488 12.473.254 4.09 11.731M359.031 411.473l4.082-11.739 12.485-.254-9.953-7.488 3.625-11.887-10.239 7.083-10.254-7.083 3.618 11.875-9.946 7.5 12.461.254 4.121 11.739" transform="matrix(.13333 0 0 -.13333 0 74.253)"/><path style="fill:#fff200;fill-opacity:1;fill-rule:nonzero;stroke:none" d="m359.031 411.473 4.082-11.739 12.485-.254-9.953-7.488 3.625-11.887-10.239 7.083-10.254-7.083 3.618 11.875-9.946 7.5 12.461.254 4.121 11.739M344.258 356.738l4.121-11.718 12.461-.254-9.949-7.5 3.613-11.875-10.246 7.089-10.242-7.089 3.621 11.875-9.942 7.5 12.473.254 4.09 11.718" transform="matrix(.13333 0 0 -.13333 0 74.253)"/><path style="fill:#fff200;fill-opacity:1;fill-rule:nonzero;stroke:none" d="m344.258 356.738 4.121-11.718 12.461-.254-9.949-7.5 3.613-11.875-10.246 7.089-10.242-7.089 3.621 11.875-9.942 7.5 12.473.254 4.09 11.718M303.684 314.863l4.089-11.73 12.493-.25-9.946-7.492 3.625-11.883-10.261 7.097-10.227-7.097 3.594 11.883-9.942 7.492 12.469.25 4.106 11.73" transform="matrix(.13333 0 0 -.13333 0 74.253)"/><path style="fill:#fff200;fill-opacity:1;fill-rule:nonzero;stroke:none" d="m303.684 314.863 4.089-11.73 12.493-.25-9.946-7.492 3.625-11.883-10.261 7.097-10.227-7.097 3.594 11.883-9.942 7.492 12.469.25 4.106 11.73M248.301 299.883l4.101-11.719 12.469-.254-9.937-7.5 3.613-11.875-10.246 7.078-10.235-7.078 3.606 11.875-9.953 7.5 12.48.254 4.102 11.719" transform="matrix(.13333 0 0 -.13333 0 74.253)"/><path style="fill:#fff200;fill-opacity:1;fill-rule:nonzero;stroke:none" d="m248.301 299.883 4.101-11.719 12.469-.254-9.937-7.5 3.613-11.875-10.246 7.078-10.235-7.078 3.606 11.875-9.953 7.5 12.48.254 4.102 11.719M192.395 314.863l4.089-11.73 12.5-.25-9.961-7.492 3.614-11.883-10.242 7.097-10.247-7.097 3.622 11.883-9.95 7.492 12.481.25 4.094 11.73" transform="matrix(.13333 0 0 -.13333 0 74.253)"/><path style="fill:#fff200;fill-opacity:1;fill-rule:nonzero;stroke:none" d="m192.395 314.863 4.089-11.73 12.5-.25-9.961-7.492 3.614-11.883-10.242 7.097-10.247-7.097 3.622 11.883-9.95 7.492 12.481.25 4.094 11.73M151.824 356.738l4.074-11.718 12.5-.254-9.941-7.5 3.621-11.875-10.254 7.089-10.254-7.089 3.618 11.875-9.954 7.5 12.481.254 4.109 11.718" transform="matrix(.13333 0 0 -.13333 0 74.253)"/><path style="fill:#fff200;fill-opacity:1;fill-rule:nonzero;stroke:none" d="m151.824 356.738 4.074-11.718 12.5-.254-9.941-7.5 3.621-11.875-10.254 7.089-10.254-7.089 3.618 11.875-9.954 7.5 12.481.254 4.109 11.718M137.07 411.473l4.102-11.739 12.461-.254-9.934-7.488 3.606-11.887-10.235 7.083-10.254-7.083 3.614 11.875-9.95 7.5 12.481.254 4.109 11.739" transform="matrix(.13333 0 0 -.13333 0 74.253)"/><path style="fill:#fff200;fill-opacity:1;fill-rule:nonzero;stroke:none" d="m137.07 411.473 4.102-11.739 12.461-.254-9.934-7.488 3.606-11.887-10.235 7.083-10.254-7.083 3.614 11.875-9.95 7.5 12.481.254 4.109 11.739M151.824 468.633l4.074-11.731 12.5-.254-9.941-7.488 3.621-11.894-10.254 7.089-10.254-7.089 3.618 11.894-9.954 7.488 12.481.254 4.109 11.731" transform="matrix(.13333 0 0 -.13333 0 74.253)"/><path style="fill:#fff200;fill-opacity:1;fill-rule:nonzero;stroke:none" d="m151.824 468.633 4.074-11.731 12.5-.254-9.941-7.488 3.621-11.894-10.254 7.089-10.254-7.089 3.618 11.894-9.954 7.488 12.481.254 4.109 11.731M192.395 508.98l4.089-11.714 12.5-.258-9.961-7.5 3.614-11.883-10.242 7.09-10.247-7.09 3.622 11.883-9.95 7.5 12.481.258 4.094 11.714" transform="matrix(.13333 0 0 -.13333 0 74.253)"/><path style="fill:#fff200;fill-opacity:1;fill-rule:nonzero;stroke:none" d="m192.395 508.98 4.089-11.714 12.5-.258-9.961-7.5 3.614-11.883-10.242 7.09-10.247-7.09 3.622 11.883-9.95 7.5 12.481.258 4.094 11.714M248.301 523.652l4.101-11.722 12.469-.25-9.937-7.5 3.613-11.875-10.246 7.09-10.235-7.09 3.606 11.875-9.953 7.5 12.48.25 4.102 11.722" transform="matrix(.13333 0 0 -.13333 0 74.253)"/><path style="fill:#fff200;fill-opacity:1;fill-rule:nonzero;stroke:none" d="m248.301 523.652 4.101-11.722 12.469-.25-9.937-7.5 3.613-11.875-10.246 7.09-10.235-7.09 3.606 11.875-9.953 7.5 12.48.25 4.102 11.722M303.684 508.98l4.089-11.714 12.493-.258-9.946-7.5 3.625-11.883-10.261 7.09-10.227-7.09 3.594 11.883-9.942 7.5 12.469.258 4.106 11.714" transform="matrix(.13333 0 0 -.13333 0 74.253)"/><path style="fill:#fff200;fill-opacity:1;fill-rule:nonzero;stroke:none" d="m303.684 508.98 4.089-11.714 12.493-.258-9.946-7.5 3.625-11.883-10.261 7.09-10.227-7.09 3.594 11.883-9.942 7.5 12.469.258 4.106 11.714M344.258 468.633l4.121-11.731 12.461-.254-9.949-7.488 3.613-11.894-10.246 7.089-10.242-7.089 3.621 11.894-9.942 7.488 12.473.254 4.09 11.731" transform="matrix(.13333 0 0 -.13333 0 74.253)"/><path style="fill:#fff200;fill-opacity:1;fill-rule:nonzero;stroke:none" d="m344.258 468.633 4.121-11.731 12.461-.254-9.949-7.488 3.613-11.894-10.246 7.089-10.242-7.089 3.621 11.894-9.942 7.488 12.473.254 4.09 11.731M359.031 411.473l4.082-11.739 12.485-.254-9.953-7.488 3.625-11.887-10.239 7.083-10.254-7.083 3.618 11.875-9.946 7.5 12.461.254 4.121 11.739" transform="matrix(.13333 0 0 -.13333 0 74.253)"/><path style="fill:#fff200;fill-opacity:1;fill-rule:nonzero;stroke:none" d="m359.031 411.473 4.082-11.739 12.485-.254-9.953-7.488 3.625-11.887-10.239 7.083-10.254-7.083 3.618 11.875-9.946 7.5 12.461.254 4.121 11.739M344.258 356.738l4.121-11.718 12.461-.254-9.949-7.5 3.613-11.875-10.246 7.089-10.242-7.089 3.621 11.875-9.942 7.5 12.473.254 4.09 11.718" transform="matrix(.13333 0 0 -.13333 0 74.253)"/><path style="fill:#fff200;fill-opacity:1;fill-rule:nonzero;stroke:none" d="m344.258 356.738 4.121-11.718 12.461-.254-9.949-7.5 3.613-11.875-10.246 7.089-10.242-7.089 3.621 11.875-9.942 7.5 12.473.254 4.09 11.718M303.684 314.863l4.089-11.73 12.493-.25-9.946-7.492 3.625-11.883-10.261 7.097-10.227-7.097 3.594 11.883-9.942 7.492 12.469.25 4.106 11.73" transform="matrix(.13333 0 0 -.13333 0 74.253)"/><path style="fill:#fff200;fill-opacity:1;fill-rule:nonzero;stroke:none" d="m303.684 314.863 4.089-11.73 12.493-.25-9.946-7.492 3.625-11.883-10.261 7.097-10.227-7.097 3.594 11.883-9.942 7.492 12.469.25 4.106 11.73M248.301 299.883l4.101-11.719 12.469-.254-9.937-7.5 3.613-11.875-10.246 7.078-10.235-7.078 3.606 11.875-9.953 7.5 12.48.254 4.102 11.719" transform="matrix(.13333 0 0 -.13333 0 74.253)"/><path style="fill:#fff200;fill-opacity:1;fill-rule:nonzero;stroke:none" d="m248.301 299.883 4.101-11.719 12.469-.254-9.937-7.5 3.613-11.875-10.246 7.078-10.235-7.078 3.606 11.875-9.953 7.5 12.48.254 4.102 11.719M192.395 314.863l4.089-11.73 12.5-.25-9.961-7.492 3.614-11.883-10.242 7.097-10.247-7.097 3.622 11.883-9.95 7.492 12.481.25 4.094 11.73" transform="matrix(.13333 0 0 -.13333 0 74.253)"/><path style="fill:#fff200;fill-opacity:1;fill-rule:nonzero;stroke:none" d="m192.395 314.863 4.089-11.73 12.5-.25-9.961-7.492 3.614-11.883-10.242 7.097-10.247-7.097 3.622 11.883-9.95 7.492 12.481.25 4.094 11.73M151.824 356.738l4.074-11.718 12.5-.254-9.941-7.5 3.621-11.875-10.254 7.089-10.254-7.089 3.618 11.875-9.954 7.5 12.481.254 4.109 11.718" transform="matrix(.13333 0 0 -.13333 0 74.253)"/><path style="fill:#fff200;fill-opacity:1;fill-rule:nonzero;stroke:none" d="m151.824 356.738 4.074-11.718 12.5-.254-9.941-7.5 3.621-11.875-10.254 7.089-10.254-7.089 3.618 11.875-9.954 7.5 12.481.254 4.109 11.718M137.07 411.473l4.102-11.739 12.461-.254-9.934-7.488 3.606-11.887-10.235 7.083-10.254-7.083 3.614 11.875-9.95 7.5 12.481.254 4.109 11.739" transform="matrix(.13333 0 0 -.13333 0 74.253)"/><path style="fill:#fff200;fill-opacity:1;fill-rule:nonzero;stroke:none" d="m137.07 411.473 4.102-11.739 12.461-.254-9.934-7.488 3.606-11.887-10.235 7.083-10.254-7.083 3.614 11.875-9.95 7.5 12.481.254 4.109 11.739" transform="matrix(.13333 0 0 -.13333 0 74.253)"/></svg>