<svg xmlns="http://www.w3.org/2000/svg" height="202.347" width="389.293" xml:space="preserve"><defs><linearGradient id="b" spreadMethod="pad" gradientTransform="scale(-208.9513 208.9513) rotate(-84.231 .656 3.395)" gradientUnits="userSpaceOnUse" y2="0" x2="1" y1="0" x1="0"><stop offset="0" style="stop-opacity:1;stop-color:#162d66"/><stop offset=".132" style="stop-opacity:1;stop-color:#162d66"/><stop offset="1" style="stop-opacity:1;stop-color:#254aa5"/></linearGradient><linearGradient id="d" spreadMethod="pad" gradientTransform="scale(191.665 -191.665) rotate(-57.53 -2.613 -5.779)" gradientUnits="userSpaceOnUse" y2="0" x2="1" y1="0" x1="0"><stop offset="0" style="stop-opacity:1;stop-color:#ed1c24"/><stop offset=".15" style="stop-opacity:1;stop-color:#ed1c24"/><stop offset=".842" style="stop-opacity:1;stop-color:#c4161d"/><stop offset="1" style="stop-opacity:1;stop-color:#c4161d"/></linearGradient><linearGradient id="f" spreadMethod="pad" gradientTransform="matrix(77.7 176.405 176.405 -77.7 593.999 741.589)" gradientUnits="userSpaceOnUse" y2="0" x2="1" y1="0" x1="0"><stop offset="0" style="stop-opacity:1;stop-color:#f1ce04"/><stop offset=".179" style="stop-opacity:1;stop-color:#f1ce04"/><stop offset=".94" style="stop-opacity:1;stop-color:#d0b103"/><stop offset="1" style="stop-opacity:1;stop-color:#d0b103"/></linearGradient><clipPath id="a" clipPathUnits="userSpaceOnUse"><path d="M1084.94 584.156 238.414 849.207l-196.3-258.281z"/></clipPath><clipPath id="c" clipPathUnits="userSpaceOnUse"><path d="M1110.94 608.328 577.094 1316.43l-308.602-93.77z"/></clipPath><clipPath id="e" clipPathUnits="userSpaceOnUse"><path d="m1097.23 596.59-724.597 511.3-265.235-183.546z"/></clipPath></defs><path style="fill:#231f20;fill-opacity:1;fill-rule:nonzero;stroke:none" d="M356.875 356.602h-83.84c-1.656 0-3.734.418-3.734 3.738v130.941c0 3.321 2.078 3.739 3.734 3.739h79.692c1.66 0 3.734-.418 3.734-3.739v-16.812c0-3.321-2.074-3.739-3.734-3.739h-48.149c-.828 0-2.074-.41-2.074-2.48v-25.32c0-1.871 1.246-2.489 2.074-2.489h37.563c1.66 0 3.738-.41 3.738-3.73v-16.82c0-3.321-2.078-3.731-3.738-3.731h-37.563c-.828 0-2.074-.422-2.074-2.488v-30.301c0-1.871 1.246-2.492 2.074-2.492h52.297c1.66 0 3.734-.41 3.734-3.731V360.34c0-3.32-2.074-3.738-3.734-3.738M487.188 356.602h-23.45c-2.488 0-2.91 1.238-2.91 2.687 0 .832 0 1.461-2.066 1.461-2.492 0-5.813-1.039-7.684-1.871-6.019-2.488-14.523-3.938-20.961-3.938-11.824 0-22.414 2.899-29.054 10.161-6.844 7.476-7.672 16.609-7.672 33.628v59.559c0 3.32 2.074 3.731 3.734 3.731h23.656c1.66 0 3.735-.411 3.735-3.731v-57.898c0-8.301.621-13.7 3.32-17.231 3.109-3.941 8.094-5.601 14.73-5.601 3.532 0 7.895.621 11.004 2.082 4.149 1.859 6.227 4.757 6.227 9.961v68.687c0 3.32 2.074 3.731 3.734 3.731h23.657c1.66 0 3.734-.411 3.734-3.731V360.34c0-3.32-2.074-3.738-3.734-3.738M597.566 436.488c-3.113 0-4.773 1.66-15.769 1.66-16.602 0-18.684-8.707-18.684-16.378v-61.43c0-3.32-2.066-3.738-3.726-3.738h-23.664c-1.66 0-3.731.418-3.731 3.738v97.949c0 3.32 2.071 3.731 3.731 3.731h23.039c2.488 0 2.902-1.25 2.902-2.7v-1.66c0-1.031 1.039-1.871 2.281-1.871 6.02 0 10.586 7.891 26.153 7.891 9.132 0 10.371-3.321 10.371-6.852v-17.219c0-1.871-.828-3.121-2.903-3.121M676.199 442.93c-18.672 0-22.199-16.18-22.199-34.45 0-17.851 3.734-32.789 22.41-32.789 18.68 0 22.203 16.188 22.203 34.45 0 17.847-3.73 32.789-22.414 32.789zm0-88.2c-35.894 0-54.781 21.372-54.781 54.161 0 31.75 17.852 54.988 54.992 54.988 35.903 0 54.785-21.367 54.785-54.16 0-31.739-17.843-54.989-54.996-54.989M813.57 441.691c-3.32 0-6.64-.421-9.547-1.66-4.566-2.082-7.265-3.953-7.265-11.621v-40.469c0-5.613 2.699-7.679 7.265-9.55 2.907-1.243 6.227-1.661 9.547-1.661 9.34 0 25.942 3.321 25.942 33.411 0 19.3-7.063 31.55-25.942 31.55zm8.715-86.961c-14.734 0-21.582 5.61-23.656 5.61-1.246 0-1.871-1.051-1.871-2.711V318c0-3.32-2.07-3.73-3.731-3.73h-23.664c-1.66 0-3.726.41-3.726 3.73v140.289c0 3.32 2.066 3.731 3.726 3.731h23.039c2.493 0 2.907-1.25 2.907-2.7 0-.832.211-1.449 2.281-1.449 4.566 0 10.789 6.008 26.558 6.008 30.508 0 47.942-20.527 47.942-53.328 0-36.313-19.922-55.821-49.805-55.821M950.105 444.789c-12.246 0-19.507-8.078-19.507-20.328 0-1.25.418-2.082 2.488-2.082h34.863c2.078 0 2.489.422 2.489 2.711 0 15.969-11.411 19.699-20.333 19.699zm47.727-41.5h-63.496c-1.871 0-3.113-.828-3.113-2.898 0-17.653 12.035-24.903 30.297-24.903 13.695 0 23.656 4.352 27.601 6.434 1.238.617 1.66 1.039 3.109 1.039 2.282 0 2.907-1.66 2.907-3.32v-13.082c0-2.7-.203-3.95-2.285-5.399-5.184-3.941-19.922-6.43-35.274-6.43-30.305 0-58.933 11.622-58.933 53.54 0 39.64 22.617 55.82 52.293 55.82 44.406 0 50.632-30.289 50.632-52.078v-4.981c0-3.32-2.078-3.742-3.738-3.742M1092.86 407.859c0 1.442-.41 2.071-1.66 2.071-1.45 0-1.45-.211-3.32-.828l-11.83-4.364c-6.64-2.488-14.52-5.398-14.52-15.769 0-9.328 4.77-13.278 15.56-13.278 3.95 0 9.55 1.457 11.62 3.118 2.08 1.66 4.15 3.519 4.15 8.91zm26.56-51.257h-22.2c-2.49 0-2.9 1.238-2.9 2.687 0 .832 0 1.461-2.08 1.461-4.56 0-12.03-5.809-27.81-5.809-28.22 0-34.65 16.598-34.65 30.918 0 19.711 10.38 28.219 32.79 35.071l23.45 7.058c3.52 1.032 6.84 1.66 6.84 5.813v.828c0 5.812-4.56 8.5-19.3 8.5-17.63 0-28.22-6.418-30.5-7.668-1.24-.633-1.87-1.039-3.32-1.039-1.87 0-2.7 1.449-2.7 3.316v13.492c0 2.489.21 4.149 2.29 5.399 8.09 5.18 26.76 7.25 39.21 7.25 25.94 0 34.04-8.09 36.53-10.57 5.6-5.61 8.09-12.668 8.09-26.981V360.34c0-3.32-2.08-3.738-3.74-3.738M1257 356.602h-23.66c-1.66 0-3.73.418-3.73 3.738v57.89c0 8.301-.83 13.5-3.53 17.02-3.11 3.941-7.89 5.809-14.53 5.809-3.52 0-7.88-.618-10.99-2.079-4.15-1.859-6.23-4.769-6.23-9.96v-68.68c0-3.32-2.07-3.738-3.73-3.738h-23.67c-1.66 0-3.73.418-3.73 3.738v97.949c0 3.32 2.07 3.731 3.73 3.731h23.46c2.49 0 2.9-1.25 2.9-2.7 0-.832.21-1.449 2.29-1.449 2.49 0 5.6 1.027 7.47 1.859 6.01 2.489 14.31 4.149 20.75 4.149 11.83 0 22.41-3.109 29.05-10.367 6.85-7.473 7.88-16.602 7.88-33.621V360.34c0-3.32-2.07-3.738-3.73-3.738M1401.01 354.941c-23.04 0-34.66 5.598-37.78 7.668-2.07 1.25-2.49 2.711-2.49 5.192v16.398c0 1.66.42 3.321 2.9 3.321 1.88 0 2.91-.829 4.37-1.661 3.52-2.07 13.07-7.468 29.46-7.468 11.21 0 21.8 1.871 21.8 13.699 0 8.09-4.98 11.41-11.21 15.14l-23.45 14.54c-7.89 4.98-21.38 13.691-21.38 37.128 0 30.723 26.77 37.782 50.22 37.782 11.83 0 24.48-2.289 33-7.469 2.07-1.25 2.48-2.699 2.48-5.199v-16.813c0-1.66-.41-3.32-2.89-3.32-2.09 0-3.12 1.051-4.79 1.871-9.74 5.191-15.97 7.68-28.21 7.68-9.13 0-18.67-2.282-18.67-12.45 0-7.671 5.18-11.21 11.4-14.531l18.48-10.16c16.18-8.93 26.56-17.437 26.56-40.269 0-29.879-22.21-41.079-49.8-41.079M1534.41 442.93c-18.67 0-22.2-16.18-22.2-34.45 0-17.851 3.75-32.789 22.42-32.789s22.21 16.188 22.21 34.45c0 17.847-3.73 32.789-22.43 32.789zm0-88.2c-35.89 0-54.78 21.372-54.78 54.161 0 31.75 17.85 54.988 55 54.988 35.9 0 54.78-21.367 54.78-54.16 0-31.739-17.85-54.989-55-54.989M1705.2 361.16c-5.2-3.941-21.39-6.219-33.21-6.219-48.55 0-54.78 34.661-54.78 53.329 0 19.718 7.05 55.609 57.48 55.609 11.21 0 26.56-2.899 30.7-6.008 2.09-1.461 2.09-2.699 2.09-5.191v-14.731c0-1.66-.43-3.32-2.91-3.32-1.44 0-2.07.422-3.32 1.031-7.68 4.149-12.66 6.031-22.62 6.031-23.24 0-28.84-16.601-28.84-33.421 0-16.809 7.05-31.122 27.59-31.122 9.96 0 16.82 2.071 24.08 6.012 1.24.629 1.67 1.039 3.11 1.039 2.29 0 2.91-1.66 2.91-3.32v-14.32c0-2.7-.21-3.95-2.28-5.399M1770.74 356.602h-23.65c-1.66 0-3.73.418-3.73 3.738v97.949c0 3.32 2.07 3.731 3.73 3.731h23.65c1.66 0 3.75-.629 3.75-3.95v-97.73c0-3.32-2.09-3.738-3.75-3.738zm-11.81 119.328c-11.22 0-17.45 4.98-17.45 13.898 0 8.711 6.45 13.692 17.45 13.692 11.19 0 17.42-4.981 17.42-13.899 0-8.711-6.43-13.691-17.42-13.691M1872.42 407.859c0 1.442-.41 2.071-1.66 2.071-1.44 0-1.44-.211-3.32-.828l-11.83-4.364c-6.65-2.488-14.52-5.398-14.52-15.769 0-9.328 4.77-13.278 15.57-13.278 3.93 0 9.53 1.457 11.62 3.118 2.07 1.66 4.14 3.519 4.14 8.91zm26.56-51.257h-22.2c-2.48 0-2.91 1.238-2.91 2.687 0 .832 0 1.461-2.07 1.461-4.57 0-12.03-5.809-27.82-5.809-28.22 0-34.64 16.598-34.64 30.918 0 19.711 10.37 28.219 32.79 35.071l23.44 7.058c3.53 1.032 6.85 1.66 6.85 5.813v.828c0 5.812-4.57 8.5-19.29 8.5-17.64 0-28.23-6.418-30.51-7.668-1.25-.633-1.88-1.039-3.32-1.039-1.88 0-2.7 1.449-2.7 3.316v13.492c0 2.489.22 4.149 2.29 5.399 8.08 5.18 26.75 7.25 39.22 7.25 25.93 0 34.02-8.09 36.52-10.57 5.6-5.61 8.08-12.668 8.08-26.981V360.34c0-3.32-2.07-3.738-3.73-3.738M1970.16 356.602h-23.66c-1.66 0-3.75.418-3.75 3.738V500c0 3.32 2.09 3.73 3.75 3.73h23.66c1.66 0 3.73-.621 3.73-3.941V360.34c0-3.32-2.07-3.738-3.73-3.738M2160.84 470.73h-43.98c-.84 0-2.07-.41-2.07-2.48v-29.469c0-1.871 1.23-2.492 2.07-2.492h35.89c1.66 0 3.73-.418 3.73-3.738v-16.813c0-3.316-2.07-3.726-3.73-3.726h-35.89c-.84 0-2.07-.422-2.07-2.492v-49.18c0-3.32-2.09-3.738-3.75-3.738h-25.73c-1.66 0-3.73.418-3.73 3.738v130.941c0 3.321 2.07 3.739 3.73 3.739h75.53c1.66 0 3.75-.418 3.75-3.739v-16.812c0-3.321-2.09-3.739-3.75-3.739M2287.01 356.602h-23.46c-2.48 0-2.91 1.238-2.91 2.687 0 .832 0 1.461-2.07 1.461-2.48 0-5.8-1.039-7.67-1.871-6.02-2.488-14.53-3.938-20.96-3.938-11.83 0-22.42 2.899-29.06 10.161-6.84 7.476-7.68 16.609-7.68 33.628v59.559c0 3.32 2.07 3.731 3.73 3.731h23.68c1.66 0 3.73-.411 3.73-3.731v-57.898c0-8.301.62-13.7 3.32-17.231 3.1-3.941 8.08-5.601 14.72-5.601 3.54 0 7.89.621 11 2.082 4.16 1.859 6.23 4.757 6.23 9.961v68.687c0 3.32 2.07 3.731 3.73 3.731h23.67c1.66 0 3.73-.411 3.73-3.731V360.34c0-3.32-2.07-3.738-3.73-3.738M2425.61 356.602h-23.66c-1.66 0-3.73.418-3.73 3.738v57.89c0 8.301-.84 13.5-3.53 17.02-3.11 3.941-7.89 5.809-14.53 5.809-3.52 0-7.87-.618-11-2.079-4.14-1.859-6.21-4.769-6.21-9.96v-68.68c0-3.32-2.09-3.738-3.75-3.738h-23.65c-1.66 0-3.73.418-3.73 3.738v97.949c0 3.32 2.07 3.731 3.73 3.731H2359c2.48 0 2.89-1.25 2.89-2.7 0-.832.22-1.449 2.29-1.449 2.5 0 5.61 1.027 7.48 1.859 6.02 2.489 14.32 4.149 20.74 4.149 11.84 0 22.42-3.109 29.06-10.367 6.84-7.473 7.9-16.602 7.9-33.621V360.34c0-3.32-2.09-3.738-3.75-3.738M2538.07 430.68c0 5.609-2.7 7.691-7.27 9.55-2.91 1.239-6.23 1.661-9.55 1.661-9.34 0-25.94-3.321-25.94-33.411 0-19.3 7.05-31.539 25.94-31.539 3.32 0 6.64.411 9.55 1.661 4.57 2.07 7.27 3.937 7.27 11.617zm27.38-74.078h-23.03c-2.5 0-2.91 1.238-2.91 2.687 0 .832 0 1.461-2.07 1.461-4.57 0-10.99-5.809-26.78-5.809-30.5 0-47.93 20.34-47.93 53.118 0 36.32 19.93 55.82 49.81 55.82 14.73 0 21.58-5.59 23.65-5.59 1.25 0 1.88 1.031 1.88 2.691v39.848c0 3.32 2.07 3.731 3.73 3.731h23.65c1.66 0 3.73-.411 3.73-3.731V360.34c0-3.32-2.07-3.738-3.73-3.738M812.102 181.27h-15.153c-.832 0-1.871-.629-1.871-2.489V100.34c0-3.32-2.07-3.738-3.73-3.738h-23.66c-1.665 0-3.735.418-3.735 3.738v78.441c0 1.86-1.039 2.489-1.867 2.489h-8.922c-1.66 0-3.738.421-3.738 3.742v13.277c0 3.32 2.078 3.731 3.738 3.731h8.922c.828 0 1.867.621 1.867 2.492v5.179c0 9.758.621 13.911 2.07 17.641 5.813 15.359 20.133 17.438 28.848 17.438 10.996 0 20.957-2.5 20.957-7.481v-12.648c0-2.493-1.238-3.321-2.691-3.321-2.492 0-4.153 2.078-8.719 2.078-4.77 0-7.469-1.457-8.715-6.027-.414-1.441-.625-7.262-.625-10.172v-2.687c0-1.871 1.039-2.492 1.871-2.492h15.153c1.66 0 3.726-.411 3.726-3.731v-13.277c0-3.321-2.066-3.742-3.726-3.742M893.848 182.93c-18.672 0-22.203-16.18-22.203-34.45 0-17.851 3.738-32.789 22.414-32.789 18.675 0 22.203 16.188 22.203 34.45 0 17.847-3.735 32.789-22.414 32.789zm0-88.2c-35.899 0-54.785 21.372-54.785 54.161 0 31.75 17.851 54.988 54.996 54.988 35.902 0 54.785-21.367 54.785-54.16 0-31.739-17.848-54.988-54.996-54.988M1050.1 176.488c-3.12 0-4.78 1.66-15.77 1.66-16.61 0-18.69-8.707-18.69-16.378v-61.43c0-3.32-2.07-3.738-3.73-3.738h-23.656c-1.66 0-3.734.417-3.734 3.738v97.949c0 3.32 2.074 3.731 3.734 3.731h23.036c2.49 0 2.9-1.25 2.9-2.7v-1.66c0-1.031 1.04-1.871 2.28-1.871 6.03 0 10.59 7.891 26.16 7.891 9.13 0 10.37-3.321 10.37-6.852v-17.219c0-1.871-.83-3.121-2.9-3.121M1259.05 102.609c-3.11-2.07-16.19-7.668-41.71-7.668-44.62 0-74.29 21.789-74.29 68.071 0 45.648 25.93 73.668 74.29 73.668 25.73 0 38.6-5.61 41.71-7.692 2.07-1.238 2.49-2.687 2.49-5.179v-17.02c0-1.66-.42-3.32-2.91-3.32-2.07 0-3.11 1.043-4.77 1.871-9.75 5.18-17.64 7.262-32.37 7.262-20.54 0-44.2-9.75-44.2-49.59 0-29.063 13.7-44.41 43.37-44.41 2.07 0 3.11 0 4.98.41 2.9.629 3.53 1.66 3.53 4.359v35.277c0 3.321 2.07 3.731 3.73 3.731h24.9c1.66 0 3.74-.41 3.74-3.731v-50.847c0-2.481-.42-3.942-2.49-5.192M1346.4 184.789c-12.25 0-19.52-8.078-19.52-20.328 0-1.25.42-2.082 2.5-2.082h34.86c2.08 0 2.49.422 2.49 2.711 0 15.969-11.41 19.699-20.33 19.699zm47.72-41.5h-63.49c-1.87 0-3.12-.828-3.12-2.898 0-17.653 12.03-24.903 30.29-24.903 13.7 0 23.66 4.352 27.61 6.434 1.24.617 1.66 1.039 3.12 1.039 2.27 0 2.9-1.66 2.9-3.32v-13.082c0-2.7-.21-3.95-2.29-5.399-5.18-3.941-19.92-6.43-35.27-6.43-30.31 0-58.94 11.622-58.94 53.54 0 39.64 22.62 55.82 52.3 55.82 44.4 0 50.63-30.289 50.63-52.078v-4.981c0-3.32-2.08-3.742-3.74-3.742M1499.1 176.488c-3.1 0-4.76 1.66-15.76 1.66-16.6 0-18.67-8.707-18.67-16.378v-61.43c0-3.32-2.09-3.738-3.75-3.738h-23.65c-1.66 0-3.73.417-3.73 3.738v97.949c0 3.32 2.07 3.731 3.73 3.731h23.03c2.5 0 2.91-1.25 2.91-2.7v-1.66c0-1.031 1.03-1.871 2.28-1.871 6.01 0 10.58 7.891 26.15 7.891 9.12 0 10.37-3.321 10.37-6.852v-17.219c0-1.871-.82-3.121-2.91-3.121M1686.05 96.602h-23.65c-1.66 0-3.73.418-3.73 3.738v58.93c0 7.89-.84 12.66-3.32 16.191-2.91 3.937-7.26 5.598-13.49 5.598-3.32 0-7.06-.418-10.16-1.868-3.75-1.66-5.82-4.562-5.82-9.543V100.34c0-3.32-2.07-3.738-3.73-3.738h-23.65c-1.66 0-3.75.418-3.75 3.738v58.93c0 7.89-.82 12.66-3.32 16.191-2.89 3.937-7.27 5.598-13.48 5.598-3.32 0-7.07-.418-10.18-1.868-3.73-1.66-5.8-4.562-5.8-9.543V100.34c0-3.32-2.09-3.738-3.75-3.738h-23.43c-1.66 0-3.75.418-3.75 3.738v97.949c0 3.32 2.09 3.731 3.75 3.731h22.81c2.5 0 2.91-1.25 2.91-2.7 0-.832.21-1.449 2.28-1.449 2.5 0 5.61 1.238 7.48 2.078 6.02 2.481 12.44 3.93 20.34 3.93 20.11 0 23.65-9.129 28-9.129h1.25c6.02 0 12.25 9.129 35.28 9.129 11.83 0 20.13-3.109 26.77-10.367 6.84-7.473 7.89-16.602 7.89-33.621V100.34c0-3.32-2.09-3.738-3.75-3.738M1787.95 147.859c0 1.442-.43 2.071-1.66 2.071-1.47 0-1.47-.211-3.32-.828l-11.84-4.364c-6.64-2.488-14.53-5.398-14.53-15.769 0-9.328 4.79-13.278 15.57-13.278 3.94 0 9.55 1.457 11.62 3.118 2.07 1.66 4.16 3.523 4.16 8.91zm26.56-51.257h-22.21c-2.5 0-2.91 1.238-2.91 2.687 0 .832 0 1.461-2.07 1.461-4.57 0-12.05-5.809-27.81-5.809-28.22 0-34.65 16.598-34.65 30.918 0 19.711 10.37 28.219 32.78 35.071l23.45 7.058c3.54 1.032 6.86 1.66 6.86 5.813v.828c0 5.812-4.57 8.5-19.32 8.5-17.63 0-28.22-6.418-30.49-7.668-1.25-.629-1.87-1.039-3.32-1.039-1.87 0-2.71 1.449-2.71 3.316v13.492c0 2.489.21 4.149 2.28 5.399 8.11 5.18 26.78 7.25 39.22 7.25 25.96 0 34.05-8.09 36.53-10.57 5.6-5.61 8.1-12.668 8.1-26.981V100.34c0-3.32-2.07-3.738-3.73-3.738M1953.32 96.602h-23.65c-1.66 0-3.75.418-3.75 3.738v57.89c0 8.301-.82 13.5-3.52 17.02-3.12 3.941-7.89 5.809-14.53 5.809-3.53 0-7.89-.618-10.99-2.079-4.17-1.859-6.24-4.769-6.24-9.96v-68.68c0-3.32-2.07-3.738-3.73-3.738h-23.65c-1.66 0-3.75.418-3.75 3.738v97.949c0 3.32 2.09 3.731 3.75 3.731h23.44c2.5 0 2.91-1.25 2.91-2.7 0-.832.21-1.449 2.28-1.449 2.49 0 5.61 1.027 7.47 1.859 6.01 2.489 14.31 4.149 20.76 4.149 11.81 0 22.4-3.109 29.04-10.367 6.86-7.473 7.89-16.602 7.89-33.621V100.34c0-3.32-2.07-3.738-3.73-3.738M2087.99 195.789l-40.06-116c-3.11-8.719-8.71-27.808-33.83-27.808-7.87 0-14.51.62-14.51 4.359v13.898c0 2.493 1.45 2.91 2.7 2.91 1.44 0 3.51-.417 6.83-.417 6.23 0 9.77 2.078 12.25 7.468l1.03 2.29c.43.831 1.25 3.73 1.25 4.98 0 1.25-.62 2.91-1.25 4.77L1985.68 196c-.43 1.449-.84 1.871-.84 3.32 0 1.66 1.04 2.7 3.54 2.7h24.69c2.91 0 3.53-1.25 3.94-2.489l21.37-69.101c.43-1.461.84-2.711 1.87-2.711 1.04 0 1.45 1.051 1.88 2.711l19.92 69.101c.41 1.239 1.04 2.489 3.95 2.489h19.29c2.48 0 3.52-1.04 3.52-2.7 0-1.449-.41-2.492-.82-3.531" transform="matrix(.13333 0 0 -.13333 0 202.347)"/><path style="fill:#254aa5;fill-opacity:1;fill-rule:nonzero;stroke:none" d="M1695.89 584.254h-442.84c-8.78 0-19.72 2.207-19.72 19.746v691.65c0 17.54 10.94 19.73 19.72 19.73h420.92c8.75 0 19.72-2.19 19.72-19.73v-88.8c0-17.54-10.97-19.71-19.72-19.71h-254.32c-4.38 0-10.94-2.2-10.94-13.16v-133.72c0-9.88 6.56-13.16 10.94-13.16h198.42c8.76 0 19.71-2.19 19.71-19.73v-88.8c0-17.527-10.95-19.715-19.71-19.715h-198.42c-4.38 0-10.94-2.199-10.94-13.156V725.641c0-9.825 6.56-13.125 10.94-13.125h276.24c8.77 0 19.73-2.215 19.73-19.746V604c0-17.539-10.96-19.746-19.73-19.746M2021.56 573.375c-121.67 0-183.03 29.602-199.5 40.559-10.96 6.582-13.14 14.246-13.14 27.402v86.602c0 8.757 2.18 17.527 15.35 17.527 9.84 0 15.33-4.395 23.01-8.77 18.63-10.965 69.03-39.461 155.66-39.461 59.18 0 115.08 9.864 115.08 72.344 0 42.742-26.32 60.281-59.2 80.008l-123.85 76.738c-41.66 26.301-112.91 72.344-112.91 196.216 0 162.21 141.41 199.48 265.25 199.48 62.5 0 129.37-12.05 174.29-39.45 10.96-6.6 13.18-14.26 13.18-27.42v-88.77c0-8.77-2.22-17.54-15.36-17.54-10.95 0-16.44 5.47-25.2 9.86-51.53 27.4-84.41 40.55-149.08 40.55-48.25 0-98.65-12.05-98.65-65.76 0-40.55 27.41-59.2 60.28-76.74l97.55-53.7c85.52-47.136 140.29-92.077 140.29-212.652 0-157.843-117.26-217.023-263.05-217.023M2853.9 1185.01h-232.38c-4.37 0-10.94-2.19-10.94-13.16v-155.64c0-9.87 6.57-13.16 10.94-13.16h189.64c8.78 0 19.74-2.19 19.74-19.722v-88.801c0-17.527-10.96-19.726-19.74-19.726h-189.64c-4.37 0-10.94-2.188-10.94-13.153V601.883c0-17.551-10.97-19.738-19.73-19.738h-135.92c-8.78 0-19.74 2.187-19.74 19.738v691.637c0 17.54 10.96 19.74 19.74 19.74h398.97c8.79 0 19.74-2.2 19.74-19.74v-88.78c0-17.54-10.95-19.73-19.74-19.73" transform="matrix(.13333 0 0 -.13333 0 202.347)"/><g clip-path="url(#a)" transform="matrix(.13333 0 0 -.13333 0 202.347)"><path style="fill:url(#b);fill-opacity:1;fill-rule:nonzero;stroke:none" d="M1084.94 584.156 238.414 849.207l-196.3-258.281z"/></g><g clip-path="url(#c)" transform="matrix(.13333 0 0 -.13333 0 202.347)"><path style="fill:url(#d);fill-opacity:1;fill-rule:nonzero;stroke:none" d="M1110.94 608.328 577.094 1316.43l-308.602-93.77z"/></g><path style="fill:#231f20;fill-opacity:1;fill-rule:nonzero;stroke:none" d="M1123.41 617.586 832.543 1455.29l-322.48 5.48z" transform="matrix(.13333 0 0 -.13333 0 202.347)"/><g clip-path="url(#e)" transform="matrix(.13333 0 0 -.13333 0 202.347)"><path style="fill:url(#f);fill-opacity:1;fill-rule:nonzero;stroke:none" d="m1097.23 596.59-724.597 511.3-265.235-183.546z"/></g></svg>