<svg xmlns="http://www.w3.org/2000/svg" height="214.88" width="498.613" xml:space="preserve"><path style="fill:#231f20;fill-opacity:1;fill-rule:nonzero;stroke:none" d="M635.797 726.824c3.398 25.5 5.098 45.899 5.098 66.301 0 101.996-62.903 175.098-183.598 175.098-130.902 0-231.199-113.903-265.195-241.399zm20.398-501.496c-83.3-20.398-170-35.699-256.699-35.699C188.699 189.629 0 274.629 0 580.621 0 820.32 168.301 1097.42 474.297 1097.42c209.098 0 326.394-125.799 326.394-331.498 0-57.797-6.8-107.102-15.296-158.094H175.098C171.699 589.121 170 572.129 170 553.43c0-181.91 112.195-234.602 266.898-234.602 79.899 0 166.598 20.402 244.797 52.692l-25.5-146.192M2169.17 1084.85h125.8l-186.82-869.299h-125.79l186.81 869.299" transform="matrix(.13333 0 0 -.13333 0 214.88)"/><path style="fill:none;stroke:#231f20;stroke-width:10;stroke-linecap:butt;stroke-linejoin:miter;stroke-miterlimit:4;stroke-dasharray:none;stroke-opacity:1" d="M2169.17 1084.85h125.8l-186.82-869.299h-125.79z" transform="matrix(.13333 0 0 -.13333 0 214.88)"/><path style="fill:#231f20;fill-opacity:1;fill-rule:nonzero;stroke:none" d="M2891.51 947.855c-41.1 24.907-92.16 42.344-158.17 42.344-82.2 0-171.87-32.383-171.87-135.754 0-145.711 296.42-146.957 296.42-374.867 0-130.769-90.92-278.976-300.15-278.976-100.88 0-173.12 22.418-242.86 49.82L2354.73 365c51.07-32.379 122.05-54.809 183.08-54.809 132.01 0 188.05 82.2 188.05 154.438 0 176.848-296.4 145.723-296.4 387.328 0 158.173 144.47 247.833 287.69 247.833 72.23 0 143.23-13.69 209.23-41.09l-34.87-110.845" transform="matrix(.13333 0 0 -.13333 0 214.88)"/><path style="fill:none;stroke:#231f20;stroke-width:10;stroke-linecap:butt;stroke-linejoin:miter;stroke-miterlimit:4;stroke-dasharray:none;stroke-opacity:1" d="M2891.51 947.855c-41.1 24.907-92.16 42.344-158.17 42.344-82.2 0-171.87-32.383-171.87-135.754 0-145.711 296.42-146.957 296.42-374.867 0-130.769-90.92-278.976-300.15-278.976-100.88 0-173.12 22.418-242.86 49.82L2354.73 365c51.07-32.379 122.05-54.809 183.08-54.809 132.01 0 188.05 82.2 188.05 154.438 0 176.848-296.4 145.723-296.4 387.328 0 158.173 144.47 247.833 287.69 247.833 72.23 0 143.23-13.69 209.23-41.09z" transform="matrix(.13333 0 0 -.13333 0 214.88)"/><path style="fill:#231f20;fill-opacity:1;fill-rule:nonzero;stroke:none" d="M3709.74 975.254h-270.25l-163.16-759.703h-125.78l163.15 759.703h-270.26l23.66 109.596h666.3l-23.66-109.596" transform="matrix(.13333 0 0 -.13333 0 214.88)"/><path style="fill:none;stroke:#231f20;stroke-width:10;stroke-linecap:butt;stroke-linejoin:miter;stroke-miterlimit:4;stroke-dasharray:none;stroke-opacity:1" d="M3709.74 975.254h-270.25l-163.16-759.703h-125.78l163.15 759.703h-270.26l23.66 109.596h666.3z" transform="matrix(.13333 0 0 -.13333 0 214.88)"/><path style="fill:#ed1c24;fill-opacity:1;fill-rule:nonzero;stroke:none" d="M1522.14 648.91 1817.96 66.8h-295.82l-195.63 422.27L887.539 0 684.75 131.211 1212 679.926 928.098 1252.49H1212l190.85-417.498 431.82 481.918 198.01-126.44-510.54-541.56" transform="matrix(.13333 0 0 -.13333 0 214.88)"/><path style="fill:#bdbcbc;fill-opacity:1;fill-rule:nonzero;stroke:none" d="M1651.79 1449.81c0-89.33-72.41-161.77-161.79-161.77-89.37 0-161.81 72.44-161.81 161.77 0 89.34 72.44 161.8 161.81 161.8 89.38 0 161.79-72.46 161.79-161.8" transform="matrix(.13333 0 0 -.13333 0 214.88)"/></svg>