<svg xmlns="http://www.w3.org/2000/svg" height="226.773" width="272.12" xml:space="preserve"><path style="fill:#fff;fill-opacity:1;fill-rule:nonzero;stroke:none" d="M2040.95 0H0v1700.79h2040.95V0" transform="matrix(.13333 0 0 -.13333 0 226.773)"/><path style="fill:#231f20;fill-opacity:1;fill-rule:nonzero;stroke:none" d="M272.07 1477.96c-3.082 1.99-6.933 3.42-11.113 3.42-7.59 0-12.652-4.08-12.652-11.45 0-6.93 4.843-9.46 8.804-11.66l10.121-5.72c9.571-5.39 16.172-10.45 16.172-21.12 0-12.88-9.129-22.11-25.195-22.11-10.121 0-18.48 3.95-19.473 4.61-.218 2.87-.55 10.57-.55 12.11 0 3.96 1.101 5.6 3.961 5.6.992 0 1.871-.21 2.535-.54l2.633-11.78c2.316-1.76 6.933-3.52 11.667-3.52 9.129 0 13.75 4.96 13.75 12 0 7.48-5.058 9.9-14.41 15.29l-6.82 3.96c-7.375 4.29-13.535 9.35-13.535 20.35 0 12.76 10.34 20.46 24.316 20.46 9.789 0 14.961-2.64 17.707-4.17 0 0 .442-9.58.442-10.79 0-3.41-.989-5.5-3.848-5.5-.883 0-1.762.12-2.422.33l-2.09 10.23M342.473 1416.8l8.031-1.11s.109-.44.109-.88c0-1.97-1.429-3.3-4.07-3.52l-14.523-1.31v7.25h-.219c-1.762-2.3-6.602-7.91-16.281-7.91-11.774 0-17.274 6.92-17.274 19.91v28.05l-7.812 1.21s-.114.66-.114 1.1c0 1.87 1.434 3.19 4.075 3.41l14.96 1.43v-34.66c0-10 5.286-12.32 10.122-12.32 5.613 0 9.351 2.43 11.886 5.28v34.55l-7.812 1.21s-.113.66-.113 1.1c0 1.87 1.429 3.19 4.074 3.41l14.961 1.43v-47.63M374.695 1419.11c1.985-1.43 4.953-2.87 9.028-2.87 9.57 0 15.507 6.49 15.507 22.01 0 12.65-6.05 18.48-13.75 18.48-5.281 0-8.582-2.31-10.785-4.29zm-.656 38.17h.324c2.535 3.19 7.157 7.81 16.067 7.81 11.55 0 20.351-8.58 20.351-25.3 0-20.9-12.211-30.04-28.269-30.04-3.196 0-5.727.45-7.817 1v-16.18l6.383-1.43c1.102-.22 1.539-.55 1.539-1.43 0-1.1-.765-2.75-1.097-3.08h-25.082s-.114.66-.114.99c0 1.98 1.321 2.97 3.41 3.63l3.852 1.32v62.71l-7.809 1.21s-.113.66-.113 1.1c0 1.87 1.43 3.19 4.07 3.41l14.961 1.43-.656-7.15M437.398 1419.11c1.981-1.43 4.95-2.87 9.024-2.87 9.57 0 15.508 6.49 15.508 22.01 0 12.65-6.051 18.48-13.75 18.48-5.282 0-8.578-2.31-10.782-4.29zm-.66 38.17h.328c2.536 3.19 7.153 7.81 16.063 7.81 11.555 0 20.351-8.58 20.351-25.3 0-20.9-12.21-30.04-28.269-30.04-3.195 0-5.723.45-7.813 1v-16.18l6.379-1.43c1.102-.22 1.539-.55 1.539-1.43 0-1.1-.765-2.75-1.097-3.08h-25.082s-.114.66-.114.99c0 1.98 1.325 2.97 3.415 3.63l3.847 1.32v62.71l-7.808 1.21s-.114.66-.114 1.1c0 1.87 1.434 3.19 4.075 3.41l14.96 1.43-.66-7.15M495.039 1437.26c0-14.74 5.938-21.34 14.082-21.34 8.141 0 14.192 6.37 14.192 21.12 0 14.74-6.051 21.56-14.192 21.56-8.144 0-14.082-6.49-14.082-21.34zm40.043.44c0-19.04-13.309-28.38-26.73-28.38-13.758 0-25.086 8.79-25.086 27.28 0 18.59 13.199 28.49 27.172 28.49 13.75 0 24.644-8.25 24.644-27.39M561.695 1454.97h.332c2.309 3.74 6.375 10.12 13.532 10.12 5.168 0 7.589-2.42 7.589-5.83 0-2.42-1.101-4.51-1.98-5.61-.879.44-3.629 1.65-7.375 1.65-6.051 0-9.129-2.42-11.438-5.61v-33.12l7.918-1.43c1.106-.21 1.543-.55 1.543-1.43 0-1.09-.878-2.75-1.097-3.08h-26.625s-.114.66-.114 1c0 1.97 1.325 2.85 3.415 3.62l3.851 1.32v40.71l-7.812 1.21s-.114.66-.114 1.1c0 1.87 1.43 3.19 4.075 3.41l14.96 1.43-.66-9.46M621.207 1457.72h-15.074v-32.13c0-4.95 1.543-9.02 7.043-9.02 4.289 0 7.808 1.88 8.687 2.64.555-.87.992-2.53.992-3.62 0-1.11-3.847-6.27-13.863-6.27-10.008 0-13.969 5.82-13.969 14.3v34.1h-8.25s-.113.66-.113.99c0 2.09 1.324 3.3 3.414 3.74l5.391 1.32 2.527 14.85h8.141v-14.85h16.285l-1.211-6.05M660.258 1442.87c.222.99.547 2.86.547 4.73 0 6.05-2.196 11.22-8.578 11.22-6.497 0-10.34-5.17-11.114-15.95zm-19.25-5.83c.105-13.64 6.594-20.02 16.058-20.02 7.039 0 11 2.75 13.754 5.05 1.098-.87 1.653-2.75 1.653-3.73 0-2.75-7.27-9.02-19.481-9.02-13.527 0-23.652 7.7-23.652 26.84s11.555 28.93 24.098 28.93c12.429 0 18.703-7.59 18.703-18.59 0-2.86-.555-6.71-1.321-9.46h-29.812M718.66 1455.19c-1.648 1.54-4.617 3.3-9.242 3.3-8.91 0-15.512-6.38-15.512-20.9 0-14.19 6.16-19.91 13.535-19.91 6.383 0 9.789 2.96 11.219 4.61zm11.113-38.39 8.032-1.11s.109-.44.109-.88c0-1.97-1.43-3.3-4.07-3.52l-14.524-1.31v7.14h-.328c-2.422-3.41-7.039-7.8-15.625-7.8-10.777 0-20.902 6.92-20.902 26.07 0 20.46 14.305 29.7 28.387 29.7 3.191 0 5.941-.55 7.808-.99v19.25l-7.808 1.1s-.11.77-.11 1.21c0 1.87 1.43 3.2 4.067 3.41l14.964 1.44v-73.71M783.559 1418.99c1.984-1.43 5.062-2.97 9.578-2.97 9.566 0 15.508 6.39 15.508 21.24 0 14.63-7.153 19.25-14.192 19.25-5.062 0-8.586-1.98-10.894-4.51zm0 38.62h.332c2.75 3.3 7.703 7.48 15.953 7.48 10.344 0 20.246-6.93 20.246-25.85 0-21.23-14.082-29.92-29.051-29.92-9.894 0-15.84 2.52-18.699 4.18v69.85l-7.699 1.1s-.114.77-.114 1.21c0 1.87 1.43 3.2 4.071 3.41l14.961 1.44v-32.9M876.738 1458.16l-18.043-47.96c-6.382-16.95-13.972-22.89-23.324-22.89-5.172 0-7.375 2.42-7.375 6.16 0 2.09.774 3.63 1.547 4.62 1.316-.55 3.187-.99 5.277-.99 6.602 0 12.762 3.08 16.391 11.78l-20.898 49.5-5.286 1.65s-.109.77-.109 1.1c0 1.76 1.43 2.64 3.078 2.64h20.578c.879 0 1.321-.44 1.321-1.1 0-.66-.555-2.2-.774-2.64l-6.156-1.65 12.976-35.86h.332l12.543 35.75-8.25 1.76s-.105.77-.105 1.1c0 1.76 1.426 2.64 3.074 2.64h17.82c.879 0 1.321-.44 1.321-1.1 0-.66-.547-2.2-.762-2.64l-5.176-1.87M896.531 1409.2c-3.855 0-6.824 2.64-6.824 6.72 0 4.18 2.969 6.81 6.824 6.81 3.852 0 6.926-2.63 6.926-6.81 0-4.08-3.074-6.72-6.926-6.72zm0 42.36c-3.855 0-6.824 2.64-6.824 6.71 0 4.18 2.969 6.82 6.824 6.82 3.852 0 6.926-2.64 6.926-6.82 0-4.07-3.074-6.71-6.926-6.71M248.086 358.602c0-14.743 5.937-21.34 14.082-21.34 8.141 0 14.187 6.379 14.187 21.129 0 14.738-6.046 21.558-14.187 21.558-8.145 0-14.082-6.488-14.082-21.347zm40.043.449c0-19.039-13.309-28.391-26.734-28.391-13.754 0-25.082 8.801-25.082 27.281 0 18.59 13.199 28.489 27.171 28.489 13.75 0 24.645-8.239 24.645-27.379M349.836 337.922l6.492-1.434c1.098-.207 1.539-.539 1.539-1.418 0-1.109-.879-2.761-1.097-3.09h-24.977s-.109.668-.109 1c0 1.969 1.32 2.969 3.41 3.622l3.633 1.32v27.828c0 9.359-5.286 12.219-10.676 12.219-6.27 0-10.34-2.969-12.653-4.84v-35.207l6.274-1.434c1.101-.207 1.543-.539 1.543-1.418 0-1.109-.879-2.761-1.102-3.09h-24.972s-.114.668-.114 1c0 1.969 1.325 2.848 3.411 3.622l3.855 1.32v40.699l-7.813 1.207s-.113.672-.113 1.113c0 1.86 1.43 3.188 4.071 3.399l14.96 1.441-.656-7.703h.332c2.969 3.192 7.918 8.352 18.039 8.352 10.782 0 16.723-6.918 16.723-19.352v-29.156M420.012 379.07h-15.074v-32.129c0-4.953 1.542-9.019 7.039-9.019 4.293 0 7.812 1.867 8.691 2.637.555-.879.992-2.52.992-3.629 0-1.102-3.847-6.27-13.863-6.27-10.008 0-13.969 5.828-13.969 14.309v34.101h-8.254s-.109.668-.109.989c0 2.089 1.32 3.3 3.414 3.742l5.391 1.328 2.527 14.84h8.141v-14.84h16.285l-1.211-6.059M444.535 378.52h.223c2.199 2.64 7.484 7.91 16.941 7.91 11 0 17.278-6.481 17.278-19.352v-29.156l6.375-1.434c1.101-.207 1.543-.539 1.543-1.418 0-1.109-.879-2.761-1.098-3.09H460.82s-.105.668-.105 1c0 1.969 1.316 2.969 3.406 3.622l3.633 1.32v27.828c0 9.359-5.063 12.219-10.676 12.219-6.82 0-10.445-2.969-12.543-5.059v-34.988l6.164-1.434c1.098-.207 1.543-.539 1.543-1.418 0-1.109-.773-2.761-1.105-3.09h-24.969s-.113.668-.113 1c0 1.969 1.324 2.969 3.414 3.622l3.847 1.32v66.777l-7.808 1.102s-.113.769-.113 1.211c0 1.867 1.429 3.187 4.074 3.41l15.066 1.43V378.52M524.512 364.219c.218.98.547 2.859.547 4.722 0 6.059-2.2 11.219-8.579 11.219-6.496 0-10.343-5.16-11.113-15.941zm-19.254-5.828c.109-13.641 6.597-20.02 16.058-20.02 7.043 0 11.004 2.738 13.758 5.059 1.098-.879 1.645-2.758 1.645-3.75 0-2.75-7.262-9.02-19.473-9.02-13.531 0-23.652 7.711-23.652 26.852 0 19.136 11.551 28.918 24.097 28.918 12.43 0 18.7-7.578 18.7-18.59 0-2.852-.551-6.699-1.317-9.449h-29.816M585.004 340.34c1.984-1.43 5.062-2.969 9.574-2.969 9.57 0 15.512 6.391 15.512 21.231 0 14.628-7.152 19.257-14.192 19.257-5.062 0-8.585-1.98-10.894-4.507zm0 38.609h.332c2.75 3.301 7.699 7.481 15.953 7.481 10.344 0 20.242-6.918 20.242-25.852 0-21.226-14.082-29.918-29.047-29.918-9.894 0-15.839 2.531-18.699 4.18v69.859l-7.699 1.102s-.113.769-.113 1.211c0 1.867 1.429 3.187 4.07 3.41l14.961 1.43v-32.903M656.395 355.75c-8.911-.449-13.969-3.629-13.969-9.469 0-4.609 2.64-7.703 7.148-7.703 4.512 0 7.926 2.973 9.356 4.731v12.543zm13.644-11.988c0-4.41 1.649-5.723 3.52-5.723 2.531 0 3.851 1.313 4.179 1.859.555-.769 1.325-2.308 1.325-3.296 0-1.442-2.864-5.711-10.016-5.711-5.059 0-8.246 2.187-9.238 7.687h-.219c-1.211-2.09-5.281-7.918-14.414-7.918-8.36 0-14.301 5.719-14.301 14.41 0 11.77 12.871 16.168 25.195 16.168h2.86v4.961c0 10.012-2.641 13.961-9.461 13.961-2.531 0-4.735-.762-5.614-1.09-.988-2.09-1.867-5.941-2.417-9.691 0 0-1.653-.098-2.532-.098-3.738 0-5.832 1.758-5.832 5.16 0 6.829 9.02 11.989 19.254 11.989 12.102 0 17.711-6.602 17.711-19.02v-23.648M710.078 378.301c-1.211.879-3.961 2.199-7.262 2.199-3.632 0-7.371-1.551-7.371-6.16 0-4.84 5.168-7.711 10.453-10.789 6.602-3.949 13.645-8.25 13.645-17.051 0-9.012-7.488-15.84-19.586-15.84-6.164 0-11.66 1.871-13.973 3.301-.441 2.75-.769 5.617-.769 8.469 0 4.398 1.211 6.16 4.512 6.16.546 0 1.429-.102 1.429-.102l2.313-9.359c1.097-.758 4.285-2.199 7.476-2.199 5.395 0 8.801 2.09 8.801 6.711 0 4.73-5.277 7.371-10.23 10.449-6.711 4.301-13.422 8.582-13.422 18.051 0 8.57 7.48 14.289 18.043 14.289 6.383 0 10.89-2.192 12.871-4.059.219-1.543.441-3.851.441-6.051 0-3.851-.769-6.39-4.73-6.39-.551 0-1.324.121-1.324.121l-1.317 8.25M741.094 396.672c-4.074 0-7.149 2.75-7.149 7.039 0 4.187 3.075 7.039 7.149 7.039 3.961 0 7.261-2.852 7.261-7.039 0-4.289-3.3-7.039-7.261-7.039zm5.609-58.75 6.496-1.434c1.098-.207 1.535-.539 1.535-1.418 0-1.109-.879-2.761-1.097-3.09h-25.196s-.113.668-.113 1c0 1.969 1.324 2.848 3.414 3.622l3.856 1.32v40.699l-7.817 1.207s-.109.672-.109 1.113c0 1.86 1.43 3.188 4.07 3.399l14.961 1.441v-47.859M787.516 378.301c-1.211.879-3.961 2.199-7.262 2.199-3.633 0-7.371-1.551-7.371-6.16 0-4.84 5.168-7.711 10.453-10.789 6.602-3.949 13.641-8.25 13.641-17.051 0-9.012-7.485-15.84-19.582-15.84-6.165 0-11.665 1.871-13.973 3.301-.442 2.75-.77 5.617-.77 8.469 0 4.398 1.211 6.16 4.512 6.16.547 0 1.43-.102 1.43-.102l2.308-9.359c1.102-.758 4.289-2.199 7.481-2.199 5.39 0 8.801 2.09 8.801 6.711 0 4.73-5.282 7.371-10.231 10.449-6.711 4.301-13.422 8.582-13.422 18.051 0 8.57 7.481 14.289 18.039 14.289 6.383 0 10.895-2.192 12.871-4.059.223-1.543.442-3.851.442-6.051 0-3.851-.766-6.39-4.727-6.39-.551 0-1.324.121-1.324.121l-1.316 8.25M842.406 358.602c0-14.743 5.938-21.34 14.082-21.34 8.141 0 14.196 6.379 14.196 21.129 0 14.738-6.055 21.558-14.196 21.558-8.144 0-14.082-6.488-14.082-21.347zm40.043.449c0-19.039-13.308-28.391-26.73-28.391-13.754 0-25.082 8.801-25.082 27.281 0 18.59 13.195 28.489 27.172 28.489 13.754 0 24.64-8.239 24.64-27.379M923.367 379.07h-13.426v-41.148l7.481-1.434c1.101-.207 1.543-.539 1.543-1.418 0-1.109-.774-2.761-1.106-3.09H891.68s-.11.668-.11 1c0 1.969 1.321 2.848 3.41 3.622l3.743 1.32v41.148h-8.137s-.117.668-.117.989c0 2.089 1.328 3.191 3.418 3.742l4.836 1.328v1.09c0 17.711 10.781 26.293 20.242 26.293 5.5 0 7.707-2.422 7.707-5.821 0-2.761-1.652-4.3-3.305-5.179-.996 1.097-3.855 3.187-7.262 3.187-4.726 0-6.378-2.64-6.378-9.121 0-3.418.214-10.449.214-10.449h14.637l-1.211-6.059M979.902 355.75c-8.906-.449-13.964-3.629-13.964-9.469 0-4.609 2.636-7.703 7.148-7.703s7.922 2.973 9.355 4.731v12.543zm13.645-11.988c0-4.41 1.648-5.723 3.523-5.723 2.532 0 3.85 1.313 4.18 1.859.55-.769 1.32-2.308 1.32-3.296 0-1.442-2.863-5.711-10.011-5.711-5.059 0-8.25 2.187-9.239 7.687h-.222c-1.211-2.09-5.285-7.918-14.414-7.918-8.364 0-14.297 5.719-14.297 14.41 0 11.77 12.871 16.168 25.191 16.168h2.863v4.961c0 10.012-2.644 13.961-9.461 13.961-2.531 0-4.738-.762-5.617-1.09-.984-2.09-1.867-5.941-2.422-9.691 0 0-1.648-.098-2.531-.098-3.738 0-5.828 1.758-5.828 5.16 0 6.829 9.023 11.989 19.258 11.989 12.098 0 17.707-6.602 17.707-19.02v-23.648M1068.56 376.531c-1.65 1.547-4.61 3.297-9.23 3.297-8.92 0-15.52-6.367-15.52-20.898 0-14.18 6.16-19.91 13.53-19.91 6.38 0 9.8 2.968 11.22 4.621zm11.12-38.39 8.03-1.102s.11-.437.11-.879c0-1.969-1.43-3.301-4.07-3.512l-14.52-1.328v7.149h-.33c-2.43-3.399-7.04-7.809-15.63-7.809-10.78 0-20.9 6.93-20.9 26.078 0 20.461 14.3 29.692 28.38 29.692 3.2 0 5.94-.539 7.81-.981v19.25l-7.81 1.102s-.11.769-.11 1.211c0 1.867 1.43 3.187 4.08 3.41l14.96 1.43v-73.711M1126.08 364.219c.23.98.56 2.859.56 4.722 0 6.059-2.21 11.219-8.58 11.219-6.5 0-10.35-5.16-11.12-15.941zm-19.24-5.828c.1-13.641 6.6-20.02 16.06-20.02 7.04 0 11 2.738 13.75 5.059 1.09-.879 1.65-2.758 1.65-3.75 0-2.75-7.26-9.02-19.47-9.02-13.54 0-23.65 7.711-23.65 26.852 0 19.136 11.55 28.918 24.09 28.918 12.43 0 18.7-7.578 18.7-18.59 0-2.852-.55-6.699-1.32-9.449h-29.81M1173.72 379.828c-7.37 0-13.75-5.269-13.75-19.68 0-13.867 5.39-21.898 15.73-21.898 6.82 0 10.78 3.52 12.54 5.281.99-.98 1.76-2.75 1.76-3.742 0-2.75-6.04-9.129-18.15-9.129-14.3 0-23.54 9.02-23.54 27.18 0 18.59 12.43 28.59 27.29 28.59 12.1 0 15.17-5.93 15.17-9.121 0-2.969-1.42-5.719-5.6-6.598-1.65 3.848-4.18 9.117-11.45 9.117M1211.01 396.672c-4.08 0-7.15 2.75-7.15 7.039 0 4.187 3.07 7.039 7.15 7.039 3.96 0 7.26-2.852 7.26-7.039 0-4.289-3.3-7.039-7.26-7.039zm5.61-58.75 6.49-1.434c1.1-.207 1.54-.539 1.54-1.418 0-1.109-.88-2.761-1.11-3.09h-25.19s-.11.668-.11 1c0 1.969 1.32 2.848 3.41 3.622l3.86 1.32v40.699l-7.81 1.207s-.11.672-.11 1.113c0 1.86 1.42 3.188 4.06 3.399l14.97 1.441v-47.859M1257.42 378.301c-1.2.879-3.95 2.199-7.25 2.199-3.64 0-7.38-1.551-7.38-6.16 0-4.84 5.18-7.711 10.45-10.789 6.6-3.949 13.64-8.25 13.64-17.051 0-9.012-7.48-15.84-19.58-15.84-6.16 0-11.66 1.871-13.97 3.301-.44 2.75-.77 5.617-.77 8.469 0 4.398 1.21 6.16 4.51 6.16.56 0 1.44-.102 1.44-.102l2.3-9.359c1.1-.758 4.3-2.199 7.48-2.199 5.39 0 8.81 2.09 8.81 6.711 0 4.73-5.28 7.371-10.23 10.449-6.71 4.301-13.42 8.582-13.42 18.051 0 8.57 7.48 14.289 18.03 14.289 6.39 0 10.89-2.192 12.88-4.059.22-1.543.43-3.851.43-6.051 0-3.851-.77-6.39-4.72-6.39-.55 0-1.32.121-1.32.121l-1.33 8.25M1288.45 396.672c-4.07 0-7.15 2.75-7.15 7.039 0 4.187 3.08 7.039 7.15 7.039 3.96 0 7.26-2.852 7.26-7.039 0-4.289-3.3-7.039-7.26-7.039zm5.61-58.75 6.49-1.434c1.1-.207 1.54-.539 1.54-1.418 0-1.109-.88-2.761-1.1-3.09h-25.2s-.11.668-.11 1c0 1.969 1.32 2.848 3.41 3.622l3.86 1.32v40.699l-7.81 1.207s-.11.672-.11 1.113c0 1.86 1.43 3.188 4.06 3.399l14.97 1.441v-47.859M1320.9 358.602c0-14.743 5.94-21.34 14.08-21.34s14.19 6.379 14.19 21.129c0 14.738-6.05 21.558-14.19 21.558s-14.08-6.488-14.08-21.347zm40.04.449c0-19.039-13.31-28.391-26.73-28.391-13.75 0-25.09 8.801-25.09 27.281 0 18.59 13.2 28.489 27.18 28.489 13.75 0 24.64-8.239 24.64-27.379M1422.65 337.922l6.48-1.434c1.1-.207 1.54-.539 1.54-1.418 0-1.109-.88-2.761-1.1-3.09h-24.97s-.11.668-.11 1c0 1.969 1.32 2.969 3.41 3.622l3.63 1.32v27.828c0 9.359-5.28 12.219-10.67 12.219-6.27 0-10.34-2.969-12.65-4.84v-35.207l6.27-1.434c1.1-.207 1.54-.539 1.54-1.418 0-1.109-.88-2.761-1.1-3.09h-24.97s-.12.668-.12 1c0 1.969 1.32 2.848 3.41 3.622l3.86 1.32v40.699l-7.81 1.207s-.11.672-.11 1.113c0 1.86 1.43 3.188 4.06 3.399l14.97 1.441-.66-7.703h.33c2.97 3.192 7.92 8.352 18.04 8.352 10.78 0 16.73-6.918 16.73-19.352v-29.156M250.723 230.34c1.98-1.43 5.062-2.969 9.574-2.969 9.57 0 15.508 6.391 15.508 21.231 0 14.628-7.149 19.257-14.188 19.257-5.062 0-8.586-1.98-10.894-4.507zm0 38.609h.332c2.75 3.301 7.699 7.481 15.953 7.481 10.34 0 20.242-6.918 20.242-25.852 0-21.226-14.082-29.918-29.047-29.918-9.898 0-15.84 2.531-18.699 4.18v69.859l-7.703 1.102s-.113.769-.113 1.211c0 1.867 1.433 3.187 4.074 3.41l14.961 1.43v-32.903M343.902 269.512l-18.043-47.973c-6.382-16.937-13.972-22.879-23.324-22.879-5.172 0-7.375 2.418-7.375 6.149 0 2.089.774 3.64 1.543 4.632 1.32-.543 3.192-.992 5.277-.992 6.606 0 12.766 3.082 16.395 11.77l-20.902 49.519-5.282 1.641s-.113.769-.113 1.101c0 1.758 1.434 2.649 3.082 2.649h20.578c.879 0 1.317-.449 1.317-1.117 0-.653-.551-2.184-.77-2.633l-6.156-1.641 12.976-35.879h.333l12.539 35.762-8.247 1.758s-.113.769-.113 1.101c0 1.758 1.43 2.649 3.082 2.649h17.821c.878 0 1.32-.449 1.32-1.117 0-.653-.547-2.184-.77-2.633l-5.168-1.867M407.914 269.07h-15.07v-32.129c0-4.953 1.543-9.019 7.039-9.019 4.293 0 7.812 1.867 8.691 2.637.551-.879.992-2.52.992-3.629 0-1.102-3.847-6.27-13.863-6.27-10.012 0-13.969 5.828-13.969 14.309v34.101h-8.254s-.113.668-.113.989c0 2.089 1.324 3.3 3.414 3.742l5.391 1.328 2.531 14.84h8.141v-14.84h16.281l-1.211-6.059M432.441 268.52h.219c2.203 2.64 7.485 7.91 16.945 7.91 11 0 17.274-6.481 17.274-19.352v-29.156l6.383-1.434c1.097-.207 1.539-.539 1.539-1.418 0-1.109-.879-2.761-1.102-3.09h-24.972s-.114.668-.114 1c0 1.969 1.325 2.969 3.414 3.622l3.625 1.32v27.828c0 9.359-5.054 12.219-10.668 12.219-6.82 0-10.453-2.969-12.543-5.059v-34.988l6.164-1.434c1.098-.207 1.54-.539 1.54-1.418 0-1.109-.77-2.761-1.102-3.09H414.07s-.109.668-.109 1c0 1.969 1.32 2.969 3.41 3.622l3.852 1.32v66.777l-7.817 1.102s-.105.769-.105 1.211c0 1.867 1.429 3.187 4.07 3.41l15.07 1.43V268.52M512.418 254.219c.219.98.547 2.859.547 4.722 0 6.059-2.199 11.219-8.578 11.219-6.496 0-10.344-5.16-11.117-15.941zm-19.254-5.828c.106-13.641 6.598-20.02 16.059-20.02 7.043 0 11.004 2.738 13.757 5.059 1.098-.879 1.649-2.758 1.649-3.75 0-2.75-7.266-9.02-19.477-9.02-13.531 0-23.652 7.711-23.652 26.852 0 19.136 11.551 28.918 24.098 28.918 12.429 0 18.699-7.578 18.699-18.59 0-2.852-.551-6.699-1.317-9.449h-29.816M611.969 288.879c-2.313 1.531-7.375 3.391-13.422 3.391-13.426 0-26.516-8.782-26.516-31.559 0-22.012 10.231-32.902 24.754-32.902 5.281 0 9.461.992 12.653 2.203v21.886l-6.711 1.551c-1.102.211-1.539.539-1.539 1.211 0 .988.769 2.301 1.21 3.301h25.082s.11-.672.11-1.211c0-1.762-.988-3.09-3.742-3.852l-2.532-.66V229.25c-2.964-2.648-11.113-8.59-27.285-8.59-19.359 0-34.539 12-34.539 38.719 0 28.621 21.231 39.832 39.492 39.832 11.664 0 17.496-3.301 21.121-4.941.333-3.301.661-10.129.661-11.008 0-3.41-.985-5.614-3.848-5.614-.879 0-1.762.223-2.527.442l-2.422 10.789M666.637 254.219c.218.98.547 2.859.547 4.722 0 6.059-2.2 11.219-8.579 11.219-6.496 0-10.343-5.16-11.117-15.941zm-19.254-5.828c.105-13.641 6.597-20.02 16.058-20.02 7.043 0 11 2.738 13.754 5.059 1.102-.879 1.653-2.758 1.653-3.75 0-2.75-7.266-9.02-19.477-9.02-13.531 0-23.652 7.711-23.652 26.852 0 19.136 11.551 28.918 24.094 28.918 12.433 0 18.703-7.578 18.703-18.59 0-2.852-.551-6.699-1.321-9.449h-29.812M705.57 266.32h.332c2.313 3.739 6.379 10.11 13.532 10.11 5.171 0 7.593-2.418 7.593-5.821 0-2.418-1.105-4.507-1.984-5.609-.879.441-3.625 1.648-7.371 1.648-6.051 0-9.133-2.418-11.442-5.609v-33.117l7.918-1.434c1.106-.207 1.543-.539 1.543-1.418 0-1.109-.878-2.761-1.097-3.09h-26.625s-.114.668-.114 1c0 1.969 1.325 2.848 3.415 3.622l3.851 1.32v40.699l-7.812 1.207s-.114.672-.114 1.113c0 1.86 1.434 3.188 4.075 3.399l14.96 1.441-.66-9.461M817.887 227.922l6.269-1.434c1.102-.207 1.543-.539 1.543-1.418 0-1.109-.773-2.761-1.097-3.09h-24.868s-.109.668-.109 1c0 1.969 1.316 2.969 3.406 3.622l3.633 1.32v27.828c0 9.57-4.73 12.219-9.902 12.219-6.707 0-10.449-2.86-12.985-5.168.332-1.762.555-3.629.555-5.723v-29.156l6.383-1.434c1.098-.207 1.535-.539 1.535-1.418 0-1.109-.766-2.761-1.098-3.09h-24.968s-.114.668-.114 1c0 1.969 1.317 2.969 3.407 3.622l3.632 1.32v27.828c0 9.57-4.617 12.219-9.789 12.219-6.164 0-9.797-2.528-12.324-4.617v-35.43l6.27-1.434c1.101-.207 1.543-.539 1.543-1.418 0-1.109-.879-2.761-1.098-3.09h-24.977s-.113.668-.113 1c0 1.969 1.324 2.848 3.414 3.622l3.852 1.32v40.699l-7.813 1.207s-.109.672-.109 1.113c0 1.86 1.43 3.188 4.07 3.399l14.961 1.441-.66-7.16h.332c2.312 2.539 7.699 7.809 17.383 7.809 6.711 0 11.66-3.071 14.191-8.899 2.969 3.297 8.805 8.899 18.699 8.899 10.563 0 16.946-6.692 16.946-19.352v-29.156M857.367 245.75c-8.91-.449-13.969-3.629-13.969-9.469 0-4.609 2.641-7.703 7.149-7.703 4.512 0 7.926 2.973 9.355 4.731v12.543zm13.649-11.988c0-4.41 1.652-5.723 3.515-5.723 2.532 0 3.86 1.313 4.18 1.859.559-.769 1.328-2.308 1.328-3.296 0-1.442-2.859-5.711-10.019-5.711-5.059 0-8.243 2.187-9.239 7.687h-.215c-1.214-2.09-5.289-7.918-14.418-7.918-8.359 0-14.3 5.719-14.3 14.41 0 11.77 12.871 16.168 25.195 16.168h2.859v4.961c0 10.012-2.64 13.961-9.464 13.961-2.528 0-4.731-.762-5.61-1.09-.988-2.09-1.867-5.941-2.422-9.691 0 0-1.648-.098-2.527-.098-3.742 0-5.832 1.758-5.832 5.16 0 6.829 9.019 11.989 19.254 11.989 12.097 0 17.715-6.602 17.715-19.02v-23.648M937.676 227.922l6.496-1.434c1.094-.207 1.531-.539 1.531-1.418 0-1.109-.879-2.761-1.094-3.09h-24.98s-.109.668-.109 1c0 1.969 1.32 2.969 3.41 3.622l3.633 1.32v27.828c0 9.359-5.286 12.219-10.672 12.219-6.274 0-10.344-2.969-12.649-4.84v-35.207l6.27-1.434c1.101-.207 1.543-.539 1.543-1.418 0-1.109-.879-2.761-1.106-3.09H884.98s-.117.668-.117 1c0 1.969 1.328 2.848 3.418 3.622l3.848 1.32v40.699l-7.813 1.207s-.105.672-.105 1.113c0 1.86 1.426 3.188 4.07 3.399l14.961 1.441-.664-7.703h.332c2.969 3.192 7.918 8.352 18.047 8.352 10.781 0 16.719-6.918 16.719-19.352v-29.156M1004.11 257.078h-7.262v-28.387h6.602c12.87 0 18.59 6.059 18.59 14.637 0 8.133-6.05 13.75-17.93 13.75zm-1.32 34.102h-5.942v-27.719h5.832c12.54 0 17.82 6.16 17.82 13.969 0 9.019-5.61 13.75-17.71 13.75zm14.08-29.918v-.223c10.67-1.758 17.71-7.809 17.71-17.828 0-12.32-10.12-21.231-29.92-21.231h-27.941s-.117.668-.117 1.211c0 1.758.886 3.297 3.742 3.969l4.629 1.09v63.59l-6.719 1.551c-1.098.211-1.535.539-1.535 1.211 0 .976.769 2.296 1.211 3.296h25.85c19.58 0 28.93-6.929 28.93-19.148 0-10.449-6.38-15.398-15.84-17.488M1094.75 228.141l8.02-1.102s.12-.437.12-.879c0-1.969-1.43-3.301-4.07-3.512l-14.52-1.328v7.258h-.23c-1.76-2.297-6.6-7.918-16.28-7.918-11.76 0-17.27 6.93-17.27 19.918v28.043l-7.81 1.207s-.11.672-.11 1.113c0 1.86 1.43 3.188 4.07 3.399l14.96 1.441v-34.66c0-10.012 5.28-12.32 10.13-12.32 5.6 0 9.34 2.418 11.87 5.277v34.543l-7.81 1.207s-.11.672-.11 1.113c0 1.86 1.44 3.188 4.08 3.399l14.96 1.441v-47.64M1162.07 227.922l6.48-1.434c1.11-.207 1.55-.539 1.55-1.418 0-1.109-.88-2.761-1.11-3.09h-24.97s-.1.668-.1 1c0 1.969 1.31 2.969 3.4 3.622l3.64 1.32v27.828c0 9.359-5.29 12.219-10.68 12.219-6.27 0-10.34-2.969-12.64-4.84v-35.207l6.27-1.434c1.09-.207 1.53-.539 1.53-1.418 0-1.109-.88-2.761-1.09-3.09h-24.98s-.11.668-.11 1c0 1.969 1.32 2.848 3.41 3.622l3.85 1.32v40.699l-7.81 1.207s-.11.672-.11 1.113c0 1.86 1.43 3.188 4.07 3.399l14.97 1.441-.67-7.703h.33c2.97 3.192 7.92 8.352 18.04 8.352 10.78 0 16.73-6.918 16.73-19.352v-29.156M1213 266.531c-1.65 1.547-4.62 3.297-9.24 3.297-8.92 0-15.52-6.367-15.52-20.898 0-14.18 6.16-19.91 13.54-19.91 6.37 0 9.79 2.968 11.22 4.621zm11.11-38.39 8.03-1.102s.12-.437.12-.879c0-1.969-1.44-3.301-4.08-3.512l-14.52-1.328v7.149h-.33c-2.42-3.399-7.04-7.809-15.62-7.809-10.79 0-20.9 6.93-20.9 26.078 0 20.461 14.29 29.692 28.38 29.692 3.19 0 5.93-.539 7.81-.981v19.25l-7.81 1.102s-.11.769-.11 1.211c0 1.867 1.42 3.187 4.07 3.41l14.96 1.43v-73.711M1270.52 254.219c.22.98.55 2.859.55 4.722 0 6.059-2.2 11.219-8.58 11.219-6.49 0-10.34-5.16-11.11-15.941zm-19.25-5.828c.11-13.641 6.6-20.02 16.06-20.02 7.05 0 11 2.738 13.75 5.059 1.1-.879 1.65-2.758 1.65-3.75 0-2.75-7.26-9.02-19.47-9.02-13.53 0-23.65 7.711-23.65 26.852 0 19.136 11.55 28.918 24.09 28.918 12.43 0 18.7-7.578 18.7-18.59 0-2.852-.54-6.699-1.32-9.449h-29.81M1317.93 268.301c-1.2.879-3.96 2.199-7.26 2.199-3.63 0-7.37-1.551-7.37-6.16 0-4.84 5.18-7.711 10.45-10.789 6.6-3.949 13.64-8.25 13.64-17.051 0-9.012-7.48-15.84-19.58-15.84-6.16 0-11.66 1.871-13.97 3.301-.44 2.75-.77 5.617-.77 8.469 0 4.398 1.21 6.16 4.51 6.16.55 0 1.43-.102 1.43-.102l2.31-9.359c1.1-.758 4.3-2.199 7.48-2.199 5.39 0 8.81 2.09 8.81 6.711 0 4.73-5.29 7.371-10.24 10.449-6.71 4.301-13.41 8.582-13.41 18.051 0 8.57 7.48 14.289 18.03 14.289 6.39 0 10.89-2.192 12.87-4.059.23-1.543.44-3.851.44-6.051 0-3.851-.77-6.39-4.72-6.39-.55 0-1.32.121-1.32.121l-1.33 8.25M1368.64 269.07h-15.08v-32.129c0-4.953 1.55-9.019 7.05-9.019 4.29 0 7.81 1.867 8.69 2.637.55-.879.99-2.52.99-3.629 0-1.102-3.85-6.27-13.86-6.27s-13.98 5.828-13.98 14.309v34.101h-8.25s-.11.668-.11.989c0 2.089 1.32 3.3 3.41 3.742l5.39 1.328 2.54 14.84h8.13v-14.84h16.29l-1.21-6.059M1401.64 245.75c-8.92-.449-13.97-3.629-13.97-9.469 0-4.609 2.63-7.703 7.14-7.703 4.52 0 7.92 2.973 9.36 4.731v12.543zm13.64-11.988c0-4.41 1.65-5.723 3.52-5.723 2.53 0 3.85 1.313 4.18 1.859.56-.769 1.32-2.308 1.32-3.296 0-1.442-2.86-5.711-10.01-5.711-5.06 0-8.25 2.187-9.24 7.687h-.23c-1.21-2.09-5.27-7.918-14.4-7.918-8.37 0-14.31 5.719-14.31 14.41 0 11.77 12.87 16.168 25.2 16.168h2.86v4.961c0 10.012-2.65 13.961-9.46 13.961-2.53 0-4.74-.762-5.62-1.09-.98-2.09-1.86-5.941-2.41-9.691 0 0-1.65-.098-2.54-.098-3.74 0-5.83 1.758-5.83 5.16 0 6.829 9.02 11.989 19.26 11.989 12.1 0 17.71-6.602 17.71-19.02v-23.648M1442.33 258.719c0-8.688 4.41-12.09 9.91-12.09 5.93 0 10.23 3.402 10.23 12.09 0 7.812-4.3 11.781-10.01 11.781-5.72 0-10.13-3.301-10.13-11.781zm4.85-36.301c-1.55 0-2.86.113-4.07.23-2.87-1.66-4.73-4.41-4.73-8.148 0-5.719 3.51-9.352 11.54-9.352 10.68 0 17.28 4.961 17.28 10.782 0 4.511-2.53 6.488-8.15 6.488zm31.68 46.434h-8.91c2.09-2.75 3.41-6.051 3.41-10.012 0-11.66-9.68-18.262-21.67-18.262-1.88 0-3.53.211-5.18.543-1.54-.883-3.07-2.422-3.07-4.941 0-2.649 1.76-3.86 5.5-3.86h12.76c10.12 0 15.84-4.621 15.84-12.55 0-10.989-10.78-21.11-29.38-21.11-13.52 0-20.12 4.731-20.12 12.75 0 7.711 6.04 11.34 10.01 12.551v.23c-2.86 1.528-4.51 4.18-4.51 7.688 0 6.391 5.83 9.359 7.92 10.449v.223c-6.17 2.75-10.12 8.371-10.12 16.289 0 11.551 9.68 17.59 20.9 17.59 2.97 0 5.83-.43 8.58-1.301h19.25l-1.21-6.277" transform="matrix(.13333 0 0 -.13333 0 226.773)"/><path style="fill:#f2cf04;fill-opacity:1;fill-rule:nonzero;stroke:none" d="M541.555 812.43h15v-200h-35v200h20" transform="matrix(.13333 0 0 -.13333 0 226.773)"/><path style="fill:#ed1c24;fill-opacity:1;fill-rule:nonzero;stroke:none" d="M541.555 1013.43h15v-201h-35v201h20" transform="matrix(.13333 0 0 -.13333 0 226.773)"/><path style="fill:#231f20;fill-opacity:1;fill-rule:nonzero;stroke:none" d="M368.281 1139.04c.274 2.24.43 4.55.43 6.92 0 1.29.012 2.78-.148 4.48 19.921.28 37.406 14.64 37.406 31.15 0 8.4-5.473 14.75-8.574 18.53.703.15 1.406.31 2.109.49 2.906-2.54 11.199-11.56 11.199-22.96 0-19.81-19.805-38.2-42.422-38.61zm-20.078 69c-.371 2.2-1.211 4.21-2.488 5.92.055 2.02.894 3.95 4.14 2.36-1.757-1.8-.39-4.98-.39-4.98s3.594 1.67 2.848 4.04c5.332-1.28 1.503-8.45-4.11-7.34zm-4.64-10.18c-.704 2.96-2.223 6.01-4.161 8.3-1.757 2.07-4.668 4.54-8.574 4.54-1.797 0-4.793-.84-6.695-1.64-.727 1.29-2.113 4.42-2.113 5.83 0 1.46 2.453 2.93 7.14 2.93 10.32 0 16.485-4.67 16.485-12.49 0-2.74-1.082-5.25-2.082-7.47zm26.503-133c1.204 0 1.789-.19 2.485-.45 2.969-8.08 14.414-23.33 14.898-23.98l.102-.14.176.04c2.8.45 9.976 1.53 15.972 1.53h.141c.652 0 1.387 0 1.863-.45.383-.39.574-1.08.574-2.05 0-1.49-.625-4.04-1.382-5.13-2.114 2.29-5.508 3.32-10.969 3.32-1.653 0-3.582-.49-4.641-.76l-.43-.1-.488-.13 3.156-3.15c4.856-4.86 9.063-9.05 9.063-11.84 0-1.68-1.641-3.87-3.152-4.84-.317 5.11-5.493 11.95-10.508 15.78l-.434.32-.074-1.79c-.078-1.23-.188-3.06-.188-5.02 0-9.73-.988-11.21-4.367-11.21-.508 0-1.304.15-1.797.33 1.899 2.35 2.661 5.45 2.661 10.9l-.039 2.5-.02 2.03c0 2.22.23 3.87.406 5.2l.102.75-.531.07c-1.582.23-4.508.62-6.754.62-4.805 0-8.071-.43-10.43-2.66-1.566 1.26-3.164 3.43-3.164 4.81 0 2.03 1.266 2.18 2.93 2.18.836 0 1.621-.11 2.695-.25 2.066-.31 5.183-.76 11.59-.76h.398l-.125.39c-1.633 4.65-6.086 11.4-13.23 20.1.64 2.32 1.265 3.84 3.511 3.84zm-61.738-23.94-.125-.39h.402c6.407 0 9.52.45 11.583.76 1.089.14 1.863.25 2.703.25 1.652 0 2.922-.15 2.922-2.18 0-1.38-1.602-3.55-3.157-4.81-2.363 2.23-5.636 2.66-10.429 2.66-2.247 0-5.188-.39-6.758-.62l-.242-.03-.286-.04.086-.75c.2-1.33.422-2.98.422-5.2l-.027-2.03-.024-2.5c0-5.45.747-8.55 2.649-10.9-.496-.18-1.289-.33-1.809-.33-3.379 0-4.351 1.48-4.351 11.21 0 1.96-.11 3.79-.176 5.02l-.102 1.8-.425-.33c-5.024-3.83-10.188-10.67-10.5-15.78-1.512.97-3.157 3.16-3.157 4.84 0 2.79 4.203 6.98 9.067 11.84l2.793 2.79.347.36-.918.23c-1.043.27-2.988.76-4.628.76-5.458 0-8.868-1.03-10.973-3.32-.742 1.09-1.391 3.64-1.391 5.13 0 .97.196 1.66.586 2.05.473.45 1.211.45 1.86.45h.132c6.008 0 13.188-1.08 15.989-1.53l.168-.04.105.14c.481.65 11.926 15.9 14.902 23.98.684.26 1.282.45 2.469.45 2.258 0 2.883-1.52 3.535-3.84-7.168-8.7-11.621-15.45-13.242-20.1zm-30.918 136.73c0 11.4 8.281 20.42 11.211 22.96.703-.18 1.399-.34 2.094-.49-3.098-3.78-8.574-10.13-8.574-18.53 0-16.67 17.832-31.16 38.004-31.16a48.418 48.418 0 0 1-.204-4.47c0-2.46.137-4.76.379-6.92-22.808.14-42.91 18.66-42.91 38.61zm153.07-35.13c10.235-16.19 18.243-15.92 30.348-15.92-10.015 7.68-16.64 17.5-19.793 22.52l-18.699 29.92c-1.828 9.25-6.606 17.88-13.762 24.31 2.403.91 4.406 1.87 5.614 2.78-12.215 0-24.317 6.2-30.973 6.2-4.277 0-7.031-2.56-7.031-5.94.269-3.76 4.148-7.6 11.316-7.6 1.633 0 3.699.21 5.984.59 3.879-5.41 7.012-10.3 7.012-17.28 0-13.1-15.66-23.31-31.48-23.31a38.8 38.8 0 0 0-2.637.1c-1.43 3.25-6.191 8.71-6.191 14.9 0 10.41 6.785 18.91 6.785 29.23 0 6.4-3.125 10.37-4.328 12.02 1.945 1.8 4.066 4.02 4.562 5.53-1.121-.48-2.461-.55-4.426-.55-7.578 0-13.75 1.98-19.773 1.98-3.43 0-4.363-1.07-4.363-2.08 0-.37.054-.74.156-.93-1.281.51-2.485.83-3.906 1.1-1.782.34-3.696.5-5.735.5-7.312 0-9.922-3.07-9.922-5.7 0-2.22 1.746-6.28 3.742-9.37 2.848 1.43 6.278 2.41 7.848 2.41 3.879 0 7.336-3.71 9.16-8.09-2.605-.32-3.101-.43-5.75-.43-7.121 0-11.972 2.55-12.976 2.55-.102 0-.285-.05-.285-.2 0-1 2.019-3.65 6.003-5.1 5.247-1.92 13.11-2.72 14.415-2.93 0-.23-1.329-2.72-2.809-3.19-.316-.11-.566-.11-.93-.04-5.476 1.08-7.011 1.54-13.965 4.19-.214.08-.339-.06-.339-.28 0-2.75 7.128-8.82 13.496-11.14-5.325-6.81-11.977-13.76-15.118-24.38a38.31 38.31 0 0 0-2.636-.1c-15.813 0-31.477 10.21-31.477 23.31 0 6.98 3.137 11.87 7.024 17.28 2.273-.38 4.343-.59 5.972-.59 7.168 0 11.047 3.84 11.328 7.6 0 3.38-2.753 5.94-7.046 5.94-6.665 0-18.75-6.2-30.969-6.2 1.203-.91 3.215-1.87 5.613-2.78-7.156-6.43-11.934-15.06-13.769-24.31l-18.692-29.92c-3.14-5.02-9.781-14.84-19.805-22.52 12.114 0 20.129-.27 30.372 15.92l9.582 15.34a42.713 42.713 0 0 1 2.609-5.83l-19.066-30.51c-3.172-5.06-9.747-14.8-19.801-22.52 12.105 0 20.125-.28 30.359 15.9l16.414 26.28a63.13 63.13 0 0 1 3.891-3.81l-23.164-37.08c-3.188-5.07-9.731-14.78-19.809-22.5 12.11 0 20.129-.29 30.363 15.9l22.579 36.15c1.496-.93 3.015-1.85 4.582-2.71l-27.563-44.1c-3.183-5.08-9.726-14.77-19.781-22.5 12.09 0 20.113-.29 30.348 15.9l28.378 45.43c1.68-.65 3.379-1.27 5.122-1.82l-32.075-51.33c-3.133-5-9.824-14.86-19.785-22.5 12.094 0 20.117-.27 30.356 15.9l34.175 54.71c.356-.06.696-.12 1.036-.19.929-2.96 1.585-5.71 1.585-8.47 0-17.18-11.292-32.37-24.828-44.09.864-.38 2.375-.51 3.774-.51 2.793 0 4.597.15 5.855.37-3.133-7.13-9.859-16.33-13.269-21.1-4.434.8-10.879 1.43-15.11 1.43-4.414 0-4.91-2.59-4.91-4.9 0-4.01 1.875-7.2 4.063-8.98.808 2.05 2.468 4.8 10.633 4.8.16 0 .429-.02.824-.05-2.395-2.66-9.867-8.7-9.867-13.56 0-3.22 3.539-8.05 8.183-8.05-.269 1.04-.23 2-.23 2.71 0 3.95 3.484 8.56 6.433 11.77-.09-.96-.051-.86-.051-1.98 0-9.31.852-13.59 6.758-13.59 2.903 0 4.907 1.59 5.586 2.07-3.836 3.54-4.031 6.31-4.031 11.54.012 1.35.012 2.68.027 4.51.024 1.2 0 2.78-.191 3.92 2.117.3 2.969.3 4.598.3 0 0 8.398.66 10.418-3.71 2.289 2.09 5.585 5.04 5.585 8.3 0 2.14-1.011 4.57-5.339 4.57-1.629 0-6.786-1-11.106-1 1.164 2.58 6.32 10.12 10.781 15.59.688-2.13 1.743-4.42 4.082-6.29.317 3.51 2.383 14.65 7.883 21.15.637-4.4 1.504-8.91 1.504-18.42 0-23.14-5.555-40.23-17.375-43.49 1.543-2.67 4.785-5.08 8.164-5.08 4.321 0 6.672 4.89 9.067 9.5 1.25-3.4 4.707-11.74 8.164-11.74s6.914 8.34 8.164 11.74c2.398-4.61 4.746-9.5 9.07-9.5 3.367 0 6.633 2.41 8.164 5.08-11.808 3.26-17.375 20.35-17.375 43.49 0 9.51.86 14.02 1.496 18.42 5.496-6.5 7.571-17.64 7.891-21.15 2.344 1.87 3.406 4.16 4.07 6.29 4.477-5.47 9.633-13.01 10.781-15.59-4.312 0-9.461 1-11.089 1-4.329 0-5.356-2.43-5.356-4.57 0-3.26 3.32-6.21 5.598-8.3 2.019 4.37 10.422 3.71 10.422 3.71 1.621 0 2.476 0 4.597-.3-.195-1.14-.207-2.72-.207-3.92.024-1.83.032-3.16.039-4.51 0-5.23-.191-8-4.043-11.54.696-.48 2.7-2.07 5.586-2.07 5.918 0 6.758 4.28 6.758 13.59 0 1.12.039 1.02-.035 1.98 2.945-3.21 6.434-7.82 6.434-11.77 0-.71.039-1.67-.247-2.71 4.661 0 8.196 4.83 8.196 8.05 0 4.86-7.473 10.9-9.864 13.56.391.03.665.05.821.05 8.176 0 9.812-2.75 10.637-4.8 2.183 1.78 4.058 4.97 4.058 8.98 0 2.31-.496 4.9-4.922 4.9-4.219 0-10.664-.63-15.094-1.43-3.41 4.77-10.136 13.97-13.285 21.1 1.274-.22 3.078-.37 5.864-.37 1.406 0 2.91.13 3.777.51-13.543 11.72-24.824 26.91-24.824 44.09 0 2.76.656 5.51 1.582 8.47.344.07.691.13 1.035.19l34.172-54.71c10.23-16.17 18.262-15.9 30.347-15.9-9.96 7.64-16.636 17.5-19.761 22.5l-32.09 51.33c1.734.55 3.445 1.17 5.125 1.82l28.379-45.43c10.234-16.19 18.254-15.9 30.359-15.9-10.074 7.73-16.617 17.42-19.793 22.5l-27.566 44.1c1.57.86 3.101 1.78 4.578 2.71l22.59-36.15c10.23-16.19 18.25-15.9 30.347-15.9-10.066 7.72-16.597 17.43-19.793 22.5l-23.156 37.08c1.36 1.22 2.656 2.5 3.867 3.81l16.426-26.28c10.235-16.18 18.254-15.9 30.356-15.9-10.063 7.72-16.621 17.46-19.797 22.52l-19.074 30.51a41.032 41.032 0 0 1 2.621 5.83l9.589-15.34M556.555 1212.43v-200h-35v200h35M665.852 1206.33h-25.657v-27.91h24.192v-7.69h-24.192v-38.3h-9.597v81.7h35.254v-7.8M703.027 1165.77c0 5.5-.382 9.37-1.132 11.64-1.36 4.51-4.25 6.77-8.704 6.77-6.171 0-9.675-3.69-10.503-11.07a62.13 62.13 0 0 1-.454-7.34zm9.036-6.11h-29.829v-3.84c0-5.8.532-9.98 1.582-12.54 1.504-3.69 4.446-5.54 8.813-5.54 6.559 0 9.976 4.18 10.293 12.54h8.808c-.531-12.65-6.894-18.98-19.101-18.98-7.91 0-13.332 2.67-16.274 8.02-2.183 3.99-3.281 10.44-3.281 19.32 0 10.1.949 17.34 2.832 21.7 2.934 6.86 8.735 10.29 17.407 10.29 8.132 0 13.55-3.02 16.265-9.04 1.66-3.77 2.485-10.21 2.485-19.32v-2.61M754.668 1160.34c0 7.76-.566 13.3-1.688 16.61-1.585 4.75-4.64 7.12-9.164 7.12-4.441 0-7.461-2.48-9.043-7.46-1.05-3.24-1.582-8.28-1.582-15.14 0-7.46.61-12.92 1.821-16.38 1.582-4.68 4.402-7.01 8.472-7.01 4.817 0 8.02 2.37 9.602 7.12 1.055 3.09 1.582 8.14 1.582 15.14zm9.148-27.91h-8.699l-.105 6.55c-3.242-4.97-7.699-7.45-13.34-7.45-7.309 0-12.317 3.27-15.031 9.83-1.731 4.37-2.598 11.15-2.598 20.34 0 8.66 1.016 15.21 3.059 19.66 2.703 6.18 7.488 9.27 14.343 9.27 5.735 0 10.02-2.23 12.879-6.67v30.17h9.043v-70.96c0-2.04.156-5.62.449-10.74M807.891 1165.77c0 5.5-.379 9.37-1.133 11.64-1.36 4.51-4.246 6.77-8.699 6.77-6.172 0-9.68-3.69-10.508-11.07-.293-2.56-.449-5.01-.449-7.34zm9.035-6.11h-29.824v-3.84c0-5.8.527-9.98 1.582-12.54 1.504-3.69 4.441-5.54 8.804-5.54 6.567 0 9.985 4.18 10.293 12.54h8.813c-.531-12.65-6.899-18.98-19.106-18.98-7.91 0-13.328 2.67-16.265 8.02-2.192 3.99-3.285 10.44-3.285 19.32 0 10.1.949 17.34 2.832 21.7 2.929 6.86 8.734 10.29 17.406 10.29 8.133 0 13.554-3.02 16.265-9.04 1.664-3.77 2.485-10.21 2.485-19.32v-2.61M854.879 1181.92c-.899.15-1.543.23-1.914.23-4.297 0-7.52-1.31-9.668-3.95-2.149-2.64-3.223-6.15-3.223-10.52v-35.25h-9.019v46.56c0 3.84-.117 7.3-.352 10.39h8.824v-7.46c3.086 5.73 7.911 8.59 14.453 8.59.606 0 .899-2.86.899-8.59M890.137 1154.47v6.77h-2.246c-11.914 0-17.852-4.06-17.852-12.2 0-7.31 2.774-10.96 8.359-10.96 4.219 0 7.344 1.81 9.375 5.42 1.582 2.87 2.364 6.52 2.364 10.97zm9.394-22.04h-8.711l-.117 7.46c-3.828-5.57-8.926-8.36-15.254-8.36-4.804 0-8.535 1.58-11.172 4.74-2.343 3.02-3.515 7.01-3.515 11.98 0 8.06 3.086 13.49 9.277 16.27 4.063 1.89 10.762 2.87 20.098 2.94v2.49c0 4.67-.371 7.91-1.114 9.72-1.21 3.01-3.769 4.51-7.695 4.51-2.715 0-4.961-.75-6.777-2.26-1.797-1.5-2.715-3.61-2.715-6.33v-.56h-8.926v.56c0 5.21 1.895 9.09 5.645 11.64 3.242 2.27 7.617 3.4 13.125 3.4 6.543 0 11.113-1.59 13.672-4.75 2.402-2.86 3.613-7.61 3.613-14.24v-21.01c0-6.86.176-12.93.566-18.2M924.492 1132.43h-8.926v81.7h8.926v-81.7M1040.9 1132.43h-9.4v74.58l-21.01-74.58h-10.724l-21.016 74.58v-74.58h-8.711v81.7h15.82l19.671-71.98 19.55 71.98h15.82v-81.7M1068.13 1132.43h-8.93v56.95h8.93zm.44 70.85h-9.82v9.72h9.82v-9.72M1123.16 1132.43h-8.94v36.39c0 4.89-.33 8.24-1.02 10.06-1.27 3.31-3.86 4.97-7.79 4.97-3.85 0-6.82-1.89-8.93-5.65-1.73-3.25-2.59-7.09-2.59-11.53v-34.24h-8.93v44.52c0 5.05-.16 9.19-.45 12.43h8.81v-7.79c3.16 6.02 8.11 9.04 14.81 9.04 10.01 0 15.03-5.92 15.03-17.74v-40.46M1148.93 1132.43H1140v56.95h8.93zm.45 70.85h-9.85v9.72h9.85v-9.72M1197.29 1148.03c0-11.08-5.96-16.62-17.86-16.62-11.68 0-17.4 6.14-17.18 18.42h8.92c0-1.13.04-2.19.12-3.16.53-5.95 3.32-8.93 8.36-8.93 5.72 0 8.59 2.94 8.59 8.82 0 3.16-.9 5.65-2.71 7.45-1.14 1.21-3.65 2.87-7.56 4.97-5.35 2.87-8.75 4.98-10.18 6.33-2.87 2.64-4.29 6.14-4.29 10.51 0 4.9 1.62 8.63 4.86 11.19 3.01 2.41 7.03 3.62 12.09 3.62 5.88 0 10.06-1.38 12.54-4.13 2.48-2.75 3.81-6.98 3.96-12.71h-8.94c0 7.08-2.66 10.62-8.01 10.62-2.34 0-4.18-.71-5.55-2.14-1.34-1.43-2.03-3.32-2.03-5.66 0-2.56 1.1-4.74 3.28-6.55 1.14-1.06 3.81-2.71 8.03-4.97 4.59-2.49 7.75-4.6 9.49-6.33 2.7-2.86 4.07-6.44 4.07-10.73M1232.77 1132.43c-2.79-.3-4.98-.45-6.56-.45-5.12 0-8.63 1.09-10.51 3.28-1.58 1.95-2.38 5.54-2.38 10.73v36.84h-8.46v6.55h8.46v10.51l8.93 3.96v-14.47h10.17v-6.55h-10.17v-35.82c0-3.17.46-5.29 1.36-6.38.9-1.1 2.6-1.65 5.08-1.65.45 0 1.82.16 4.08.46v-7.01M1267.68 1181.92c-.9.15-1.55.23-1.92.23-4.3 0-7.52-1.31-9.67-3.95-2.14-2.64-3.22-6.15-3.22-10.52v-35.25h-9.02v46.56c0 3.84-.12 7.3-.35 10.39h8.8v-7.46c3.11 5.73 7.91 8.59 14.48 8.59.6 0 .9-2.86.9-8.59M1314.57 1189.38l-22.81-78.53h-8.71l6.56 21.58-17.07 56.95h9.61l11.97-45.65 11.64 45.65h8.81M651.047 1087.46c-.688.08-1.848.12-3.496.12-2.793 0-4.68-1.02-5.656-3.06-.606-1.43-.911-3.72-.911-6.89v-8.25h9.731v-6.55h-9.731v-50.4h-8.921v50.4h-8.364v6.55h8.364v6.22c0 6.18.75 10.58 2.261 13.22 2.114 3.91 6.172 5.88 12.199 5.88 1.582 0 3.094-.08 4.524-.23v-7.01M690.371 1035.14v8.71c0 6.47-.383 10.95-1.133 13.44-1.433 4.6-4.48 6.89-9.148 6.89-4.902 0-8.137-2.44-9.719-7.34-.828-2.56-1.238-6.97-1.238-13.22v-8.14c0-5.5.445-9.42 1.347-11.75 1.583-4 4.665-5.99 9.266-5.99 4.442 0 7.461 1.92 9.043 5.76 1.055 2.56 1.582 6.45 1.582 11.64zm9.27 6.1c0-10.39-1.172-17.74-3.508-22.03-2.942-5.27-8.438-7.91-16.492-7.91-8.215 0-13.711 2.64-16.504 7.91-2.114 3.99-3.164 11.07-3.164 21.24 0 9.8 1.132 16.88 3.394 21.25 3.012 5.95 8.653 8.93 16.946 8.93 8.21 0 13.671-2.75 16.386-8.25 1.961-3.84 2.942-10.89 2.942-21.14M737.938 1061.92c-.895.15-1.543.23-1.915.23-4.293 0-7.515-1.31-9.668-3.95-2.144-2.64-3.218-6.15-3.218-10.52v-35.25h-9.035v46.56c0 3.84-.118 7.3-.34 10.39h8.804v-7.46c3.098 5.73 7.914 8.59 14.477 8.59.602 0 .895-2.86.895-8.59M815.801 1012.43h-38.43v81.7h37.641v-7.8H786.98v-28.02h26.567v-7.58H786.98v-30.5h28.821v-7.8M864.16 1030.17c0-12.58-5.922-18.87-17.758-18.87-8.125 0-13.589 2.64-16.363 7.91-2.109 3.99-3.164 10.93-3.164 20.79 0 9.87.938 16.88 2.813 21.02 2.871 6.41 8.511 9.61 16.949 9.61 6.484 0 11.074-1.51 13.793-4.52 2.48-2.87 3.73-7.5 3.73-13.9h-8.812c0 7.98-2.95 11.97-8.828 11.97-4.668 0-7.715-2.52-9.141-7.57-.84-2.93-1.25-8.17-1.25-15.7 0-8.59.644-14.5 1.914-17.74 1.445-3.62 4.141-5.43 8.145-5.43 3.535 0 6.015 1.24 7.46 3.73 1.055 1.88 1.622 4.78 1.7 8.7h8.812M904.844 1035.14v8.71c0 6.47-.391 10.95-1.133 13.44-1.426 4.6-4.492 6.89-9.16 6.89-4.903 0-8.125-2.44-9.707-7.34-.84-2.56-1.25-6.97-1.25-13.22v-8.14c0-5.5.449-9.42 1.347-11.75 1.582-4 4.688-5.99 9.278-5.99 4.433 0 7.461 1.92 9.043 5.76 1.054 2.56 1.582 6.45 1.582 11.64zm9.258 6.1c0-10.39-1.172-17.74-3.497-22.03-2.949-5.27-8.437-7.91-16.503-7.91-8.204 0-13.711 2.64-16.504 7.91-2.11 3.99-3.164 11.07-3.164 21.24 0 9.8 1.132 16.88 3.398 21.25 3.008 5.95 8.652 8.93 16.953 8.93 8.203 0 13.672-2.75 16.387-8.25 1.953-3.84 2.93-10.89 2.93-21.14M966.875 1012.43h-8.926v36.39c0 4.89-.332 8.24-1.015 10.06-1.289 3.31-3.887 4.97-7.793 4.97-3.848 0-6.817-1.89-8.926-5.65-1.738-3.25-2.598-7.09-2.598-11.53v-34.24h-8.945v44.52c0 5.05-.137 9.19-.449 12.43h8.828v-7.79c3.164 6.02 8.086 9.04 14.804 9.04 10.02 0 15.02-5.92 15.02-17.74v-40.46M1011.86 1035.14v8.71c0 6.47-.4 10.95-1.14 13.44-1.42 4.6-4.49 6.89-9.16 6.89-4.9 0-8.122-2.44-9.705-7.34-.839-2.56-1.25-6.97-1.25-13.22v-8.14c0-5.5.45-9.42 1.348-11.75 1.582-4 4.688-5.99 9.277-5.99 4.43 0 7.46 1.92 9.04 5.76 1.06 2.56 1.59 6.45 1.59 11.64zm9.25 6.1c0-10.39-1.17-17.74-3.49-22.03-2.95-5.27-8.44-7.91-16.51-7.91-8.2 0-13.708 2.64-16.501 7.91-2.109 3.99-3.164 11.07-3.164 21.24 0 9.8 1.133 16.88 3.399 21.25 3.008 5.95 8.652 8.93 16.956 8.93 8.2 0 13.67-2.75 16.38-8.25 1.96-3.84 2.93-10.89 2.93-21.14M1098.4 1012.43h-8.93v38.3c0 4.15-.37 7.09-1.11 8.82-1.13 2.79-3.4 4.18-6.8 4.18-6.7 0-10.04-5.16-10.04-15.48v-35.82h-8.94v38.76c0 3.99-.29 6.78-.9 8.36-1.05 2.79-3.34 4.18-6.89 4.18-3.38 0-5.98-1.66-7.8-4.97-1.58-2.94-2.36-6.74-2.36-11.41v-34.92h-8.95v47.12c0 3.39-.13 6.67-.45 9.83h8.93v-7.46c3.03 5.8 7.5 8.71 13.46 8.71 6.48 0 10.7-2.91 12.65-8.71 3.32 5.8 8.03 8.71 14.12 8.71 5.2 0 8.89-1.7 11.08-5.09 1.95-2.94 2.93-7.72 2.93-14.35v-38.76M1124.18 1012.43h-8.93v56.95h8.93zm.45 70.85h-9.84v9.72h9.84v-9.72M1176.04 1030.17c0-12.58-5.92-18.87-17.74-18.87-8.14 0-13.59 2.64-16.39 7.91-2.11 3.99-3.16 10.93-3.16 20.79 0 9.87.94 16.88 2.83 21.02 2.85 6.41 8.5 9.61 16.94 9.61 6.48 0 11.07-1.51 13.78-4.52 2.5-2.87 3.74-7.5 3.74-13.9h-8.81c0 7.98-2.95 11.97-8.81 11.97-4.69 0-7.74-2.52-9.16-7.57-.82-2.93-1.25-8.17-1.25-15.7 0-8.59.64-14.5 1.93-17.74 1.43-3.62 4.14-5.43 8.13-5.43 3.55 0 6.03 1.24 7.46 3.73 1.05 1.88 1.62 4.78 1.7 8.7h8.81M1250.96 1040.68l-11.86 44.41-11.87-44.41zm17.97-28.25h-9.95l-5.76 20.68h-28.36l-5.78-20.68h-9.59l23.95 81.7h11.87l23.62-81.7M1301.35 1087.46c-.67.08-1.84.12-3.5.12-2.79 0-4.67-1.02-5.64-3.06-.61-1.43-.92-3.72-.92-6.89v-8.25h9.73v-6.55h-9.73v-50.4h-8.93v50.4H1274v6.55h8.36v6.22c0 6.18.77 10.58 2.27 13.22 2.11 3.91 6.17 5.88 12.21 5.88 1.58 0 3.08-.08 4.51-.23v-7.01M1334.47 1087.46c-.68.08-1.85.12-3.51.12-2.78 0-4.67-1.02-5.65-3.06-.6-1.43-.9-3.72-.9-6.89v-8.25h9.71v-6.55h-9.71v-50.4h-8.92v50.4h-8.38v6.55h8.38v6.22c0 6.18.74 10.58 2.24 13.22 2.11 3.91 6.2 5.88 12.21 5.88 1.58 0 3.09-.08 4.53-.23v-7.01M1370.18 1034.47v6.77h-2.27c-11.89 0-17.85-4.06-17.85-12.2 0-7.31 2.79-10.96 8.36-10.96 4.22 0 7.34 1.81 9.37 5.42 1.59 2.87 2.39 6.52 2.39 10.97zm9.37-22.04h-8.69l-.12 7.46c-3.85-5.57-8.92-8.36-15.25-8.36-4.83 0-8.56 1.58-11.19 4.74-2.35 3.02-3.5 7.01-3.5 11.98 0 8.06 3.09 13.49 9.26 16.27 4.06 1.89 10.78 2.87 20.12 2.94v2.49c0 4.67-.38 7.91-1.14 9.72-1.21 3.01-3.77 4.51-7.67 4.51-2.72 0-4.98-.75-6.8-2.26-1.8-1.5-2.69-3.61-2.69-6.33v-.56h-8.93v.56c0 5.21 1.87 9.09 5.64 11.64 3.25 2.27 7.6 3.4 13.11 3.4 6.54 0 11.11-1.59 13.67-4.75 2.4-2.86 3.61-7.61 3.61-14.24v-21.01c0-6.86.2-12.93.57-18.2M1404.53 1012.43h-8.92v56.95h8.92zm.45 70.85h-9.84v9.72h9.84v-9.72M1445.1 1061.92c-.92.15-1.55.23-1.94.23-4.29 0-7.5-1.31-9.64-3.95-2.15-2.64-3.23-6.15-3.23-10.52v-35.25h-9.04v46.56c0 3.84-.12 7.3-.33 10.39h8.81v-7.46c3.08 5.73 7.91 8.59 14.45 8.59.61 0 .92-2.86.92-8.59M1486 1028.03c0-11.08-5.96-16.62-17.86-16.62-11.68 0-17.4 6.14-17.16 18.42h8.92c0-1.13.04-2.19.1-3.16.53-5.95 3.32-8.93 8.38-8.93 5.72 0 8.57 2.94 8.57 8.82 0 3.16-.9 5.65-2.71 7.45-1.11 1.21-3.65 2.87-7.56 4.97-5.35 2.87-8.75 4.98-10.18 6.33-2.87 2.64-4.29 6.14-4.29 10.51 0 4.9 1.62 8.63 4.86 11.19 3.01 2.41 7.05 3.62 12.09 3.62 5.88 0 10.06-1.38 12.54-4.13 2.5-2.75 3.81-6.98 3.96-12.71h-8.92c0 7.08-2.68 10.62-8.03 10.62-2.34 0-4.18-.71-5.55-2.14-1.34-1.43-2.03-3.32-2.03-5.66 0-2.56 1.1-4.74 3.28-6.55 1.14-1.06 3.81-2.71 8.03-4.97 4.59-2.49 7.76-4.6 9.49-6.33 2.72-2.86 4.07-6.44 4.07-10.73M655 914.461v6.777h-2.258c-11.902 0-17.847-4.062-17.847-12.195 0-7.305 2.781-10.957 8.359-10.957 4.219 0 7.344 1.805 9.375 5.418 1.582 2.863 2.371 6.516 2.371 10.957zm9.387-22.031h-8.711l-.11 7.461c-3.836-5.575-8.925-8.368-15.253-8.368-4.825 0-8.543 1.582-11.18 4.747-2.348 3.015-3.52 7.011-3.52 11.98 0 8.066 3.098 13.488 9.282 16.27 4.058 1.886 10.757 2.871 20.105 2.941v2.488c0 4.668-.383 7.91-1.121 9.719-1.211 3.016-3.774 4.52-7.695 4.52-2.707 0-4.961-.762-6.782-2.266-1.804-1.504-2.714-3.613-2.714-6.328v-.567h-8.922v.567c0 5.195 1.882 9.082 5.652 11.64 3.23 2.266 7.605 3.391 13.105 3.391 6.551 0 11.114-1.582 13.68-4.746 2.402-2.863 3.613-7.609 3.613-14.238v-21.016c0-6.855.188-12.922.571-18.195M718.621 892.43h-8.926v36.386c0 4.903-.34 8.243-1.011 10.059-1.289 3.313-3.887 4.973-7.805 4.973-3.836 0-6.816-1.887-8.926-5.657-1.726-3.242-2.605-7.078-2.605-11.523V892.43h-8.926v44.523c0 5.047-.149 9.188-.449 12.43h8.816v-7.793c3.164 6.015 8.098 9.035 14.797 9.035 10.019 0 15.035-5.91 15.035-17.746V892.43M763.816 920.34c0 7.754-.562 13.301-1.699 16.613-1.582 4.746-4.629 7.117-9.137 7.117-4.457 0-7.46-2.48-9.042-7.461-1.055-3.242-1.583-8.281-1.583-15.136 0-7.461.606-12.918 1.805-16.387 1.582-4.668 4.403-7 8.469-7 4.82 0 8.023 2.371 9.605 7.117 1.059 3.086 1.582 8.125 1.582 15.137zm9.164-27.91h-8.71l-.11 6.554c-3.242-4.972-7.683-7.461-13.332-7.461-7.312 0-12.32 3.282-15.035 9.832-1.73 4.375-2.602 11.153-2.602 20.344 0 8.66 1.02 15.215 3.059 19.656 2.703 6.184 7.488 9.27 14.348 9.27 5.718 0 10.015-2.219 12.886-6.672v30.176h9.036v-70.957c0-2.039.148-5.613.46-10.742M856.461 892.43h-38.414v81.699h37.633v-7.793h-28.024v-28.027h26.559v-7.579h-26.559v-30.507h28.805v-7.793M908.008 892.43h-8.926v36.386c0 4.903-.352 8.243-1.035 10.059-1.27 3.313-3.867 4.973-7.793 4.973-3.828 0-6.816-1.887-8.926-5.657-1.738-3.242-2.598-7.078-2.598-11.523V892.43h-8.925v44.523c0 5.047-.157 9.188-.45 12.43h8.809v-7.793c3.164 6.015 8.106 9.035 14.805 9.035 10.019 0 15.039-5.91 15.039-17.746V892.43M952.52 925.77c0 5.488-.372 9.375-1.133 11.64-1.348 4.512-4.239 6.778-8.692 6.778-6.172 0-9.687-3.692-10.507-11.075a60.535 60.535 0 0 1-.45-7.343zm9.043-6.114h-29.825v-3.836c0-5.8.528-9.98 1.582-12.539 1.504-3.691 4.434-5.539 8.809-5.539 6.562 0 9.98 4.18 10.273 12.539h8.828c-.527-12.656-6.894-18.984-19.101-18.984-7.91 0-13.34 2.676-16.27 8.027-2.187 3.985-3.281 10.43-3.281 19.317 0 10.097.938 17.336 2.832 21.699 2.93 6.855 8.731 10.285 17.403 10.285 8.125 0 13.554-3.02 16.269-9.035 1.66-3.77 2.481-10.215 2.481-19.324v-2.61M999.531 941.922c-.898.156-1.543.234-1.914.234-4.297 0-7.519-1.328-9.668-3.965-2.148-2.636-3.222-6.132-3.222-10.507V892.43h-9.043v46.562c0 3.84-.098 7.305-.332 10.391h8.808v-7.461c3.086 5.723 7.91 8.594 14.473 8.594.605 0 .898-2.871.898-8.594M1037.27 922.715c0 6.394-.53 11.14-1.59 14.238-1.64 4.676-4.74 7-9.25 7-4.67 0-7.76-2.637-9.26-7.91-.92-3.164-1.37-8.398-1.37-15.703 0-6.551.45-11.231 1.37-14.004 1.42-4.676 4.31-7.012 8.69-7.012 5.12 0 8.52 2.824 10.18 8.477.82 2.929 1.23 7.91 1.23 14.914zm9.27 26.668c0-.828-.06-2.324-.17-4.461-.12-2.149-.16-3.82-.16-5.031v-49.832c0-6.934-1.62-11.985-4.86-15.149-3.24-3.164-8.4-4.746-15.49-4.746-11.76 0-17.7 5.508-17.85 16.504h9.49c0-6.934 2.93-10.391 8.81-10.391 4.61 0 7.65 1.661 9.16 4.961 1.05 2.188 1.58 5.801 1.58 10.852v7.683c-3.16-4.441-7.58-6.668-13.22-6.668-7.09 0-11.94 2.977-14.57 8.934-1.74 3.906-2.6 10.02-2.6 18.301 0 9.191.94 16.047 2.81 20.566 2.72 6.485 7.54 9.719 14.48 9.719 6.32 0 10.87-2.637 13.67-7.91v6.668h8.92M1099.08 949.383l-22.81-78.535h-8.71l6.56 21.582-17.07 56.953h9.61l11.97-45.653 11.64 45.653h8.81" transform="matrix(.13333 0 0 -.13333 0 226.773)"/></svg>