<svg xmlns="http://www.w3.org/2000/svg" height="103.24" width="235.667" xml:space="preserve"><path style="fill:#fff200;fill-opacity:1;fill-rule:nonzero;stroke:none" d="m1112.69 774.348-31.74-96.008-96.673-2.09 77.093-61.406-28.02-97.305 79.34 58.066 79.43-58.066-28.02 97.305 76.97 61.406-96.66 2.09-31.72 96.008M1607.38 203.242l-96.65-2.09 77.06-61.414-28-97.297 79.3 58.079 79.41-58.079-28 97.297 77.05 61.414-96.63 2.09-31.83 96.016-31.71-96.016M1433.65 581.75l31.82-96.016 96.63-2.089-77.05-61.418 28-97.286-79.4 58.055-79.31-58.055 27.99 97.286-77.04 61.418 96.63 2.089 31.73 96.016" transform="matrix(.13333 0 0 -.13333 0 103.24)"/><path style="fill:#254aa5;fill-opacity:1;fill-rule:nonzero;stroke:none" d="M45.012 639.031 30.004 543.82h4.004c34.41 0 57.418 20.399 57.418 60.809 0 23.406-15.012 34.402-42.215 34.402zm7.398 21.41c44.613 0 66.418-19.003 66.418-53.41 0-54.812-34.805-84.621-88.422-84.621H0l21.805 138.031H52.41M158.203 580.625h3.399c18.613 0 24.609 5.996 24.609 15 0 5.402-3.398 8.008-7.805 8.008-8.601 0-16.402-8.008-20.203-23.008zm5.801-16.406h-7.805v-2.996c0-14.407 6.203-20.606 17.414-20.606 11.992 0 19.59 5.801 22.207 8.203l5.196-17.804c-3.399-3.203-12.403-11.004-31.614-11.004-22.996 0-37.605 12.398-37.605 40.808 0 40.207 25.41 61.418 51.609 61.418 15.012 0 25.012-8.207 25.012-24.004 0-23.007-18.613-34.015-44.414-34.015M279.199 596.23c-2.597 1.797-9.394 5.997-19.394 5.997-7.598 0-11.211-2.997-11.211-7.598 0-4.598 2.812-7.805 10.019-12.805l4.785-3.394c10.606-7.403 17.618-15.813 17.618-28.215 0-17-13.008-30.203-36.211-30.203-16.407 0-25.41 6.601-29.61 9.804l8.399 20c2.812-2.597 10.605-9.199 20.801-9.199 7.812 0 12.402 2.403 12.402 7.403 0 4.804-2.988 8.203-10.586 14.199l-4.805 3.601c-10 8-16.015 15-16.015 27.207 0 18.203 15.605 29.211 36.406 29.211 13.418 0 21.211-4.804 24.219-6.808l-6.817-19.2M328.613 636.836c-8.613 0-14.609 5.207-14.609 14.199 0 9.004 5.996 14.406 14.609 14.406 8.789 0 14.805-5.402 14.805-14.406 0-8.992-6.016-14.199-14.805-14.199zm-7.617-114.426h-25l15.41 97.426h25l-15.41-97.426M387.207 541.816c9.805 0 15.391 5.403 18.008 8l7.793 49.215c-1.992 1.399-5.606 3.196-10.996 3.196-15.215 0-27.813-14.004-27.813-41.407 0-12.605 4.805-19.004 13.008-19.004zm39.004-17c-3.809-24.406-15-44.816-52.207-44.816-18.809 0-29.414 8.605-34.414 13.203l9.199 20.203c3.399-3.797 12.012-12.398 27.207-12.398 16.016 0 22.813 7.605 25 21.805l1.817 11.007h-.411c-3.398-4.211-10.195-13.007-24.804-13.007-16.192 0-28.594 11.597-28.594 39.812 0 39.406 24.805 61.613 51.992 61.613 12.207 0 19.004-5.207 22.012-7.804l5.996 5.402h12.207l-15-95.02M541.016 573.43l-8.203-51.02h-25.02l8.203 51.02c1.016 6.394 1.602 11.394 1.602 15 0 8.797-3.203 12.8-10.606 12.8-8.594 0-15.586-5-19.59-8.406l-11.015-70.414h-25l15.41 97.426h22.793l-1.992-12.805h.39c4.61 5.196 14.61 15.207 31.621 15.207 15.196 0 23.594-9.804 23.594-28.215 0-4.597-.586-11.394-2.187-20.593M590.195 636.836c-8.593 0-14.609 5.207-14.609 14.199 0 9.004 6.016 14.406 14.609 14.406 8.809 0 14.805-5.402 14.805-14.406 0-8.992-5.996-14.199-14.805-14.199zm-7.597-114.426h-25l15.39 97.426h25.02l-15.41-97.426M697.813 573.43l-8.204-51.02H664.59l8.203 51.02c1.016 6.394 1.602 11.394 1.602 15 0 8.797-3.204 12.8-10.606 12.8-8.594 0-15.586-5-19.59-8.406l-11.015-70.414h-25l15.41 97.426h22.793l-1.992-12.805h.39c4.61 5.196 14.61 15.207 31.621 15.207 15.196 0 23.594-9.804 23.594-28.215 0-4.597-.586-11.394-2.187-20.593M755 541.816c9.805 0 15.391 5.403 18.008 8l7.793 49.215c-1.992 1.399-5.606 3.196-10.996 3.196-15.215 0-27.813-14.004-27.813-41.407 0-12.605 4.805-19.004 13.008-19.004zm39.004-17c-3.809-24.406-15-44.816-52.207-44.816-18.809 0-29.414 8.605-34.414 13.203l9.199 20.203c3.398-3.797 12.012-12.398 27.207-12.398 16.016 0 22.813 7.605 25 21.805l1.816 11.007h-.41c-3.398-4.211-10.195-13.007-24.804-13.007-16.192 0-28.594 11.597-28.594 39.812 0 39.406 24.805 61.613 51.992 61.613 12.207 0 19.004-5.207 22.012-7.804l5.996 5.402h12.207l-15-95.02M832.383 520.012c-9.199 0-15 5.801-15 15.203s5.801 15.207 15 15.207c9.004 0 15-5.805 15-15.207 0-9.402-5.996-15.203-15-15.203M110.625 399.031H72.012L53.613 282.41H27.008L45.41 399.031H6.602L10 420.441h105.43l-4.805-21.41M199.219 333.43l-8.203-51.02h-25l8.195 51.02c1.004 5.191 1.602 11.199 1.602 15.191 0 8.41-3.196 12.609-10.801 12.609-8.606 0-15.403-5.203-19.407-8.601l-10.996-70.219H109.59l22.207 141.028 25.41 2.207-9.004-57.012h.402c5.008 5.195 14 13.605 29.012 13.605 15.391 0 23.594-10.207 23.594-28.617 0-6.199-.996-13.394-1.992-20.191M244.395 340.625h3.418c18.593 0 24.589 5.996 24.589 15 0 5.402-3.398 8.008-7.793 8.008-8.593 0-16.406-8.008-20.214-23.008zm5.82-16.406h-7.813v-2.996c0-14.407 6.211-20.606 17.403-20.606 12.011 0 19.609 5.801 22.207 8.203l5.195-17.804c-3.398-3.203-12.402-11.004-31.602-11.004-23.007 0-37.597 12.398-37.597 40.808 0 40.207 25.39 61.418 51.601 61.418 15 0 25-8.207 25-24.004 0-23.007-18.593-34.015-44.394-34.015M444.023 399.031h-49.824l-6.386-40.601h46.601l-3.398-21.407h-46.407l-8.808-54.613h-26.602l21.797 138.031h78.027l-5-21.41M524.805 282.41h-22.793l1.992 12.805h-.391c-4.609-5.399-12.402-15.203-30.605-15.203-15.606 0-23.809 10-23.809 28.601 0 5.008.996 13.008 2.403 20.41l8.007 50.813h25l-8.203-50.813c-.996-6.003-1.601-11.601-1.601-15.203 0-8.605 3.398-12.804 10.41-12.804 8.183 0 15 4.804 19.004 8.398l10.996 70.422h25l-15.41-97.426M614.805 360.031h-22.403l-5.41-33.808c-.996-6.399-1.797-11.797-1.797-15 0-7.61 3.399-10.207 9.004-10.207 5.196 0 8.008 1.394 9.61 2.199l1.796-18.399c-2.792-1.41-8.593-4.406-19.609-4.406-16.406 0-26.211 8.008-26.211 27.012 0 4.601 1.211 11.601 2.207 18.801l5.41 33.808h-13.007l3.007 17.207 12.989 2.391 7.207 26.809h22.207l-4.395-26.602h22.793l-3.398-19.805M700.996 282.41h-22.793l1.992 12.805h-.39c-4.61-5.399-12.403-15.203-30.606-15.203-15.605 0-23.808 10-23.808 28.601 0 5.008.996 13.008 2.402 20.41l8.008 50.813h25l-8.203-50.813c-.996-6.003-1.602-11.601-1.602-15.203 0-8.605 3.399-12.804 10.41-12.804 8.184 0 15 4.804 19.004 8.398l10.996 70.422h25l-15.41-97.426M791.992 359.426c-.996.398-3.398 1.199-7.597 1.199-11.407 0-17.793-5.398-22.403-11.199l-10.605-67.016h-24.805l15.215 97.426h22.988l-2.402-14.805h.41c4.395 7.996 11.797 16.602 25.801 16.602 4.004 0 6.211-.598 7.011-.996l-3.613-21.211M824.59 340.625h3.398c18.614 0 24.61 5.996 24.61 15 0 5.402-3.399 8.008-7.813 8.008-8.594 0-16.387-8.008-20.195-23.008zm5.801-16.406h-7.793v-2.996c0-14.407 6.191-20.606 17.402-20.606 11.992 0 19.59 5.801 22.207 8.203l5.195-17.804c-3.398-3.203-12.402-11.004-31.601-11.004-23.008 0-37.617 12.398-37.617 40.808 0 40.207 25.41 61.418 51.601 61.418 15.02 0 25.02-8.207 25.02-24.004 0-23.007-18.614-34.015-44.414-34.015M898.184 280.012c-9.2 0-15 5.801-15 15.203s5.8 15.207 15 15.207c9.004 0 15-5.805 15-15.207 0-9.402-5.996-15.203-15-15.203M110.625 159.031H72.012L53.613 42.411H27.008L45.41 159.03H6.602L10 180.441h105.43l-4.805-21.41M119.609 82.023c0-13.605 4.2-21.007 13.594-21.007 12.61 0 24.805 11.406 24.805 39.406 0 13.406-4.199 20.808-13.594 20.808-12.605 0-24.805-11.199-24.805-39.207zm63.614 20.801c0-42.61-26.407-62.812-53.02-62.812-21.805 0-35.809 13.203-35.809 39.605 0 42.414 26.407 62.621 53.016 62.621 21.809 0 35.813-13.008 35.813-39.414M236.406 61.816c9.805 0 15.41 5.403 18.008 8l7.813 49.215c-2.012 1.399-5.606 3.196-11.016 3.196-15.195 0-27.793-14.004-27.793-41.407 0-12.605 4.785-19.004 12.988-19.004zm39.004-17C271.621 20.41 260.41 0 223.203 0c-18.789 0-29.394 8.605-34.394 13.203l9.199 20.203c3.398-3.797 11.992-12.398 27.207-12.398 15.996 0 22.793 7.605 25 21.805l1.797 11.007h-.391c-3.398-4.21-10.215-13.007-24.805-13.007-16.211 0-28.613 11.597-28.613 39.812 0 39.406 24.805 61.613 52.012 61.613 12.207 0 19.004-5.207 22.012-7.804l5.996 5.402h12.207l-15.02-95.02M329.395 100.625h3.418c18.593 0 24.589 5.996 24.589 15 0 5.402-3.398 8.008-7.793 8.008-8.593 0-16.406-8.008-20.214-23.008zm5.82-16.406h-7.813v-2.996c0-14.407 6.211-20.606 17.403-20.606 12.011 0 19.609 5.801 22.207 8.203l5.195-17.804c-3.398-3.203-12.402-11.004-31.602-11.004-23.007 0-37.597 12.398-37.597 40.808 0 40.207 25.39 61.418 51.601 61.418 15 0 25-8.207 25-24.004 0-23.007-18.593-34.015-44.394-34.015M454.219 120.031h-22.422l-5.391-33.808c-.996-6.399-1.797-11.797-1.797-15 0-7.61 3.399-10.207 9.004-10.207 5.196 0 7.989 1.394 9.59 2.199L445 44.816c-2.793-1.41-8.594-4.406-19.59-4.406-16.406 0-26.211 8.008-26.211 27.012 0 4.601 1.192 11.601 2.207 18.8l5.391 33.809h-13.008l3.008 17.207 13.008 2.391 7.207 26.809h22.187l-4.394-26.602h22.812l-3.398-19.805M550.41 93.43l-8.203-51.02h-25l8.203 51.02c.996 5.191 1.602 11.199 1.602 15.191 0 8.41-3.203 12.609-10.801 12.609-8.613 0-15.41-5.203-19.414-8.601L485.801 42.41h-25l22.187 141.028 25.41 2.207-9.003-57.012h.41c5 5.195 14.004 13.605 29.004 13.605 15.41 0 23.613-10.207 23.613-28.617 0-6.199-1.016-13.394-2.012-20.191M595.586 100.625h3.418c18.594 0 24.59 5.996 24.59 15 0 5.402-3.399 8.008-7.793 8.008-8.594 0-16.406-8.008-20.215-23.008zm5.82-16.406h-7.812v-2.996c0-14.407 6.211-20.606 17.402-20.606 12.012 0 19.609 5.801 22.207 8.203l5.195-17.804c-3.398-3.203-12.402-11.004-31.601-11.004-23.008 0-37.598 12.398-37.598 40.808 0 40.207 25.391 61.418 51.602 61.418 15 0 25-8.207 25-24.004 0-23.007-18.594-34.015-44.395-34.015M721.406 119.426c-.996.398-3.398 1.199-7.597 1.199-11.407 0-17.813-5.398-22.422-11.199L680.801 42.41h-24.805l15.195 97.426h23.008l-2.402-14.805h.391c4.414 7.996 11.816 16.602 25.82 16.602 4.004 0 6.191-.598 6.992-.996l-3.594-21.211M732.793 40.012c-9.219 0-15.02 5.8-15.02 15.203 0 9.402 5.801 15.207 15.02 15.207 8.984 0 15-5.805 15-15.207 0-9.403-6.016-15.203-15-15.203" transform="matrix(.13333 0 0 -.13333 0 103.24)"/></svg>