<svg xmlns="http://www.w3.org/2000/svg" xmlns:xlink="http://www.w3.org/1999/xlink" width="1080" zoomAndPan="magnify" viewBox="0 0 810 809.999993" height="1080" preserveAspectRatio="xMidYMid meet" version="1.0"><defs><clipPath id="70199ced9e"><path d="M 26 146 L 391 146 L 391 622 L 26 622 Z M 26 146 " clip-rule="nonzero"/></clipPath><clipPath id="b7b0bd7b42"><path d="M -104.269531 199.835938 L 362.234375 53.214844 L 524.820312 570.515625 L 58.316406 717.136719 Z M -104.269531 199.835938 " clip-rule="nonzero"/></clipPath><clipPath id="c4bbcd5991"><path d="M -104.269531 199.835938 L 362.234375 53.214844 L 524.820312 570.515625 L 58.316406 717.136719 Z M -104.269531 199.835938 " clip-rule="nonzero"/></clipPath><clipPath id="6c221fddcd"><path d="M 419 146 L 785 146 L 785 622 L 419 622 Z M 419 146 " clip-rule="nonzero"/></clipPath><clipPath id="3ff512364b"><path d="M 447.503906 53.308594 L 914.257812 199.121094 L 752.566406 716.703125 L 285.8125 570.890625 Z M 447.503906 53.308594 " clip-rule="nonzero"/></clipPath><clipPath id="4f6dfbe31e"><path d="M 913.964844 199.027344 L 447.210938 53.214844 L 285.523438 570.796875 L 752.277344 716.609375 Z M 913.964844 199.027344 " clip-rule="nonzero"/></clipPath></defs><g clip-path="url(#70199ced9e)"><g clip-path="url(#b7b0bd7b42)"><g clip-path="url(#c4bbcd5991)"><path fill="#4baccf" d="M 388.714844 154.832031 L 354.320312 177.851562 C 334.191406 190.144531 315.566406 204.765625 297.726562 220.433594 C 279.742188 236.257812 262.773438 253.199219 246.503906 270.496094 C 225.800781 292 207.125 315.1875 189.84375 339.011719 C 172.335938 363.078125 156.457031 388.074219 142.59375 414.222656 C 134.265625 429.941406 126.628906 446.015625 119.464844 462.457031 C 102.792969 500.839844 89.523438 540.542969 81.976562 582.703125 C 81.851562 584.019531 80.644531 584.921875 79.335938 584.824219 C 78.03125 584.726562 77.085938 583.53125 77.214844 582.214844 C 78.894531 538.222656 85.667969 495.558594 98.449219 454.640625 C 104.054688 436.800781 110.972656 419.445312 118.742188 402.441406 C 131.789062 374.167969 147.394531 347.097656 165.484375 321.542969 C 183.429688 296.300781 204.089844 272.871094 226.238281 250.6875 C 247.265625 230.023438 269.296875 209.699219 293.0625 191.691406 C 309.058594 179.578125 325.84375 168.507812 343.425781 158.953125 C 345.097656 158.261719 368.050781 145.382812 380.726562 146.765625 C 386.871094 147.425781 388.828125 149.347656 390.339844 152.0625 C 390.742188 152.816406 389.988281 153.464844 388.714844 154.832031 Z M 48.523438 445.917969 C 46.121094 437.375 36.292969 432.859375 28.566406 437.207031 C 27.957031 437.542969 27.503906 437.871094 27.355469 438.109375 C 26.175781 440.167969 26.242188 443.484375 26.035156 448.199219 C 25.890625 452.296875 26.21875 456.835938 27.011719 461.742188 C 29.054688 475.082031 33.714844 489.082031 34.136719 490.839844 C 41.027344 516.089844 45.28125 547.164062 53.679688 574.738281 C 57.789062 588.070312 62.882812 600.582031 69.472656 611.488281 C 70.742188 613.597656 72.632812 616.0625 74.820312 617.894531 C 76.691406 619.4375 78.785156 620.582031 80.945312 621.183594 C 85.804688 622.671875 91.003906 622.058594 95.917969 618.835938 C 100.910156 615.609375 106.246094 606.96875 108.179688 604.105469 C 116.578125 591.703125 125.375 579.746094 134.246094 567.9375 C 142.597656 556.851562 151.34375 546.128906 159.773438 535.117188 C 172.53125 518.511719 184.671875 501.699219 198.660156 485.351562 C 200.917969 483.246094 200.996094 479.691406 198.878906 477.46875 C 196.761719 475.246094 193.234375 475.089844 190.980469 477.269531 C 170.160156 493.21875 150.179688 508.980469 132.476562 527.496094 C 115.679688 545.125 101.378906 565.039062 87.09375 585.566406 C 84.285156 579.589844 81.929688 573.132812 79.796875 566.511719 C 71.023438 539.335938 66.316406 508.589844 59.050781 483.742188 Z M 48.523438 445.917969 " fill-opacity="1" fill-rule="nonzero"/></g></g></g><g clip-path="url(#6c221fddcd)"><g clip-path="url(#3ff512364b)"><g clip-path="url(#4f6dfbe31e)"><path fill="#4baccf" d="M 420.90625 154.878906 L 455.339844 177.839844 C 475.492188 190.097656 494.140625 204.683594 512.007812 220.320312 C 530.019531 236.117188 547.015625 253.027344 563.316406 270.296875 C 584.058594 291.761719 602.773438 314.921875 620.097656 338.714844 C 637.644531 362.75 653.566406 387.71875 667.472656 413.839844 C 675.832031 429.546875 683.496094 445.605469 690.691406 462.035156 C 707.425781 500.390625 720.765625 540.070312 728.386719 582.214844 C 728.511719 583.535156 729.722656 584.433594 731.027344 584.332031 C 732.332031 584.230469 733.273438 583.035156 733.148438 581.71875 C 731.386719 537.734375 724.542969 495.082031 711.6875 454.183594 C 706.054688 436.355469 699.105469 419.011719 691.308594 402.019531 C 678.210938 373.769531 662.558594 346.726562 644.425781 321.199219 C 626.4375 295.988281 605.734375 272.597656 583.550781 250.453125 C 562.484375 229.824219 540.417969 209.535156 516.621094 191.570312 C 500.605469 179.484375 483.800781 168.445312 466.203125 158.917969 C 464.53125 158.230469 441.554688 145.394531 428.882812 146.796875 C 422.738281 147.46875 420.785156 149.394531 419.273438 152.109375 C 418.878906 152.863281 419.632812 153.511719 420.90625 154.878906 Z M 761.601562 445.375 C 763.988281 436.828125 773.808594 432.296875 781.542969 436.632812 C 782.152344 436.964844 782.605469 437.292969 782.753906 437.53125 C 783.941406 439.585938 783.875 442.902344 784.09375 447.617188 C 784.242188 451.714844 783.925781 456.253906 783.140625 461.160156 C 781.121094 474.507812 776.484375 488.515625 776.066406 490.273438 C 769.21875 515.53125 765.019531 546.613281 756.667969 574.207031 C 752.578125 587.542969 747.511719 600.066406 740.9375 610.984375 C 739.671875 613.089844 737.785156 615.558594 735.601562 617.398438 C 733.734375 618.941406 731.640625 620.089844 729.484375 620.695312 C 724.625 622.191406 719.425781 621.589844 714.507812 618.375 C 709.511719 615.15625 704.15625 606.523438 702.21875 603.664062 C 693.796875 591.277344 684.984375 579.335938 676.089844 567.542969 C 667.71875 556.46875 658.957031 545.765625 650.507812 534.765625 C 637.71875 518.183594 625.550781 501.394531 611.53125 485.066406 C 609.273438 482.96875 609.1875 479.414062 611.300781 477.1875 C 613.414062 474.957031 616.941406 474.796875 619.199219 476.972656 C 640.046875 492.886719 660.054688 508.613281 677.789062 527.097656 C 694.617188 544.699219 708.949219 564.585938 723.273438 585.089844 C 726.070312 579.109375 728.417969 572.648438 730.535156 566.019531 C 739.261719 538.832031 743.914062 508.078125 751.140625 483.21875 Z M 761.601562 445.375 " fill-opacity="1" fill-rule="nonzero"/></g></g></g></svg>