<svg xmlns="http://www.w3.org/2000/svg" xmlns:xlink="http://www.w3.org/1999/xlink" width="1080" zoomAndPan="magnify" viewBox="0 0 810 809.999993" height="1080" preserveAspectRatio="xMidYMid meet" version="1.0"><defs><clipPath id="e07365ff23"><path d="M 211 38 L 645 38 L 645 750 L 211 750 Z M 211 38 " clip-rule="nonzero"/></clipPath><clipPath id="38bc00a226"><path d="M -11.277344 336.980469 L 533.703125 3.335938 L 821.136719 472.839844 L 276.160156 806.484375 Z M -11.277344 336.980469 " clip-rule="nonzero"/></clipPath><clipPath id="4af4913ee9"><path d="M 533.722656 3.324219 L -11.257812 336.96875 L 276.179688 806.472656 L 821.15625 472.828125 Z M 533.722656 3.324219 " clip-rule="nonzero"/></clipPath></defs><g clip-path="url(#e07365ff23)"><g clip-path="url(#38bc00a226)"><g clip-path="url(#4af4913ee9)"><path fill="#f7a71e" d="M 255.351562 695.050781 C 272.742188 693.871094 289.855469 691.902344 306.597656 688.648438 C 325.503906 684.898438 343.710938 679.445312 361.191406 671.351562 C 401.371094 655.054688 441.753906 622.167969 466.101562 581.804688 C 486.082031 548.644531 495.019531 510.238281 482.21875 471.621094 C 472.1875 475.296875 462.007812 478.167969 451.605469 480.003906 C 431.441406 483.496094 410.613281 482.871094 388.980469 475.667969 C 373.808594 470.613281 353.949219 459.582031 342.644531 445.371094 C 332.574219 432.734375 328.667969 417.835938 335.710938 401.996094 C 349.84375 370.496094 378.320312 364.449219 409.082031 373.339844 C 443.695312 383.367188 480.710938 413.675781 495.257812 439.007812 C 504.671875 434.546875 513.839844 429.691406 522.882812 424.839844 C 560.238281 404.714844 589.203125 370.996094 605.386719 330.074219 C 620.300781 292.125 624.292969 248.101562 613.8125 202.851562 C 605.917969 166.308594 585.785156 134.652344 563.152344 108.78125 C 547.394531 90.777344 530.332031 75.90625 514.597656 63.992188 C 500.269531 53.140625 487.707031 44.5 476.667969 40.144531 C 476.1875 40.027344 475.882812 39.527344 475.996094 39.046875 C 476.113281 38.5625 476.613281 38.257812 477.09375 38.371094 C 489.402344 39.757812 505.066406 43.824219 521.839844 52.285156 C 540.671875 61.75 560.375 76.449219 578.421875 94.492188 C 605.429688 121.460938 627.65625 156.980469 637.691406 197.359375 C 649.484375 247.773438 645.015625 296.960938 628.320312 339.292969 C 610.039062 385.753906 577.078125 424.046875 534.660156 446.996094 C 525.074219 452.179688 515.273438 457.355469 505.25 462.054688 C 521.351562 508.527344 511.367188 554.984375 486.964844 594.695312 C 459.628906 639.148438 414.132812 674.894531 369.378906 692.34375 C 353.578125 697.695312 337.441406 701.261719 320.910156 703.285156 C 308.769531 704.75 296.449219 705.359375 284.085938 705.449219 C 280.753906 704.265625 277.441406 703 274.109375 701.816406 C 267.914062 699.433594 261.582031 697.273438 255.351562 695.050781 Z M 402.023438 397.558594 C 384.191406 392.417969 366.914062 394.007812 358.765625 412.308594 C 354.996094 420.722656 360.171875 428.050781 366.738281 434.183594 C 375.375 442.347656 387.433594 448.484375 396.957031 451.710938 C 414.320312 457.546875 431.113281 457.96875 447.316406 455.183594 C 455.625 453.734375 463.816406 451.535156 471.820312 448.691406 C 458.972656 428.492188 429.441406 405.472656 402.023438 397.558594 Z M 216.011719 706.78125 C 218.261719 709.109375 221.808594 710.984375 224.015625 711.898438 C 242.195312 718.953125 260.585938 726.015625 279.523438 731.503906 C 288.003906 733.929688 296.550781 735.898438 305.121094 737.789062 C 325.382812 742.195312 345.34375 745.550781 365.402344 749.738281 C 367.570312 750.46875 369.9375 749.296875 370.640625 747.082031 C 371.371094 744.917969 370.199219 742.546875 367.984375 741.84375 C 345.882812 731.636719 324.050781 721.191406 301.183594 711.863281 C 295.523438 709.5625 289.824219 707.425781 284.074219 705.320312 C 272.183594 705.398438 260.164062 704.933594 248.082031 704.027344 C 245.746094 704.015625 243.871094 702.078125 243.878906 699.738281 C 243.890625 697.398438 245.828125 695.527344 248.167969 695.535156 C 250.546875 695.382812 252.921875 695.230469 255.300781 695.078125 C 253.890625 694.570312 252.398438 694.042969 250.992188 693.53125 C 272.441406 681.5 304.816406 665.453125 312.558594 661.398438 L 331.019531 650.984375 C 332.515625 649.726562 336.75 648.578125 338.101562 646.859375 C 339.996094 644.460938 339.265625 645.734375 339.359375 644.097656 C 339.511719 641.878906 341.101562 643.578125 340.71875 642.507812 C 340.019531 640.46875 342.890625 641.457031 341.726562 640.453125 C 341.046875 639.90625 342.582031 639.722656 341.816406 639.367188 C 339.933594 638.53125 343.277344 635.589844 340.457031 636.699219 C 339.898438 636.90625 340.300781 635.769531 339.660156 636.296875 C 337.867188 637.738281 339.941406 632.832031 337.359375 638.253906 C 336.878906 638.136719 336.410156 638.492188 336.292969 638.976562 C 336.175781 639.457031 336.53125 639.925781 337.015625 640.042969 C 337.117188 642.453125 336.90625 641.550781 336.90625 641.550781 C 336.90625 641.550781 336.351562 643.332031 336.503906 642.347656 C 336.644531 641.230469 335.425781 642.9375 335.628906 642.265625 C 335.894531 641.347656 334.496094 642.203125 334.859375 641.566406 C 335.484375 640.570312 333.46875 640.976562 334.257812 640.359375 C 334.796875 639.894531 333.5 639.792969 334.128906 639.476562 C 335.820312 638.648438 332.496094 636.359375 334.859375 636.972656 C 335.824219 637.203125 334.484375 634.113281 335.992188 635.457031 C 336.414062 635.8125 336.53125 634.097656 335.972656 634.644531 C 335.214844 635.3125 336.398438 633.765625 335.15625 633.085938 C 333.421875 632.15625 330.5 632.09375 327.871094 632.054688 C 325.875 632.042969 324.253906 632.761719 323.054688 633.152344 L 302.71875 641.074219 C 292.644531 645.800781 243.472656 667.464844 224.683594 678.691406 C 219.011719 682.097656 215.488281 685.417969 214.070312 687.25 C 211.035156 691.371094 211.03125 695.285156 211.457031 698.109375 C 211.90625 701.199219 213.480469 704.214844 216.011719 706.78125 Z M 216.011719 706.78125 " fill-opacity="1" fill-rule="nonzero"/></g></g></g></svg>